<svg width="84" height="74" viewBox="0 0 84 74" fill="none" xmlns="http://www.w3.org/2000/svg">
<path d="M45.0722 69.8903C45.0731 70.8976 44.7051 71.8701 44.0381 72.6232C43.3711 73.3763 42.4516 73.8575 41.4542 73.9753L40.9748 74L22.5361 74C16.717 73.9994 11.1237 71.7413 6.92695 67.6982C2.73019 63.6551 0.255361 58.1405 0.0204826 52.3088L-2.24661e-06 51.3964L-9.43482e-07 21.5844C-0.00103844 19.2068 0.820098 16.9024 2.32343 15.0641C3.82676 13.2257 5.91921 11.9673 8.24412 11.5032L8.24412 21.1487L8.20724 21.3624L8.19495 21.5844L8.19495 51.3964C8.19291 55.0676 9.59044 58.6006 12.1013 61.2717C14.6121 63.9429 18.0463 65.5501 21.7002 65.7641L22.487 65.7887L40.9748 65.7887C42.0615 65.7887 43.1037 66.2217 43.8721 66.9925C44.6405 67.7632 45.0722 68.8085 45.0722 69.8985L45.0722 69.8903ZM53.3205 57.5364C53.3213 58.5437 52.9533 59.5163 52.2863 60.2693C51.6193 61.0224 50.6998 61.5036 49.7024 61.6215L49.223 61.6461L22.5894 61.6461C19.9893 61.6466 17.4863 60.6554 15.5879 58.8734C13.6895 57.0914 12.5378 54.652 12.3662 52.0499L12.3416 51.3718L12.3416 10.2744C12.3412 7.66582 13.33 5.1548 15.1076 3.25062C16.8851 1.34643 19.3182 0.191666 21.9133 0.0205465L22.5853 -2.68452e-06L49.1779 -1.52212e-06C50.2219 0.00219322 51.2257 0.40402 51.9844 1.12343C52.743 1.84283 53.1992 2.82556 53.2599 3.87093C53.3205 4.91631 52.9811 5.94548 52.3108 6.74831C51.6405 7.55113 50.6899 8.06705 49.6532 8.19071L49.1779 8.21948L22.5853 8.21948C22.1058 8.21932 21.6414 8.38786 21.273 8.69576C20.9047 9.00365 20.6556 9.43139 20.5693 9.90447L20.5365 10.2744L20.5365 51.3718C20.5364 51.8527 20.7044 52.3185 21.0114 52.6879C21.3184 53.0574 21.7448 53.3072 22.2165 53.3938L22.5853 53.4266L49.223 53.4266C50.3097 53.4266 51.3519 53.8596 52.1203 54.6304C52.8888 55.4011 53.3205 56.4464 53.3205 57.5364ZM68.4565 13.5375L82.7977 27.9134C83.5038 28.6205 83.9284 29.5618 83.9917 30.5606C84.0551 31.5594 83.7529 32.547 83.1419 33.3382L82.7977 33.7245L68.4565 48.1169C67.7183 48.8481 66.731 49.2712 65.6939 49.3008C64.6567 49.3303 63.6471 48.9642 62.8686 48.2762C62.0901 47.5883 61.6008 46.6297 61.4995 45.5941C61.3982 44.5584 61.6923 43.5227 62.3226 42.6961L62.6627 42.3098L70.0054 34.9369L33.7837 34.9369C32.7801 34.9368 31.8114 34.5672 31.0614 33.8983C30.3115 33.2294 29.8323 32.3077 29.7149 31.308L29.6862 30.8313C29.6853 29.824 30.0534 28.8514 30.7204 28.0983C31.3873 27.3452 32.3069 26.864 33.3043 26.7462L33.7837 26.7215L70.0177 26.7215L62.6627 19.3487C61.9572 18.641 61.5334 17.6995 61.4708 16.7007C61.4082 15.7019 61.7111 14.7145 62.3226 13.9238L62.6627 13.5375C63.3677 12.8293 64.3062 12.4034 65.302 12.3399C66.2978 12.2763 67.2825 12.5794 68.0714 13.1923L68.4565 13.5375Z" fill="#898989"/>
</svg>
