<svg width="27" height="29" viewBox="0 0 27 29" fill="none" xmlns="http://www.w3.org/2000/svg">
<path d="M0.00192068 1.03542C0.00192068 0.760808 0.103106 0.497445 0.283218 0.303267C0.463329 0.109088 0.707613 0 0.962329 0H1.80365C3.20008 0 4.00298 0.979506 4.46782 1.95694C4.78475 2.62582 5.01333 3.44173 5.20349 4.14996H24.9783C25.2751 4.15005 25.5678 4.2243 25.8336 4.36686C26.0993 4.50943 26.3307 4.71644 26.5097 4.97165C26.6888 5.22686 26.8105 5.52333 26.8654 5.83779C26.9203 6.15225 26.9069 6.47615 26.8261 6.78406L23.9526 17.7077C23.724 18.5744 23.2395 19.3371 22.5726 19.8801C21.9057 20.4231 21.0927 20.7168 20.2569 20.7167H10.5011C9.6584 20.717 8.83897 20.4185 8.16908 19.8673C7.49918 19.3161 7.01598 18.5427 6.79393 17.6663L5.56076 12.7895C5.55369 12.7676 5.54729 12.7455 5.54156 12.7232L3.56119 5.48151L3.36911 4.78363C3.17703 4.06712 3.008 3.43345 2.75445 2.90124C2.44904 2.25928 2.1686 2.07291 1.80173 2.07291H0.960408C0.705692 2.07291 0.461408 1.96382 0.281297 1.76964C0.101185 1.57546 0 1.3121 0 1.03749L0.00192068 1.03542ZM10.5722 29C11.3363 29 12.0692 28.6727 12.6095 28.0902C13.1498 27.5077 13.4534 26.7176 13.4534 25.8937C13.4534 25.0699 13.1498 24.2798 12.6095 23.6973C12.0692 23.1148 11.3363 22.7875 10.5722 22.7875C9.80803 22.7875 9.07518 23.1148 8.53484 23.6973C7.99451 24.2798 7.69095 25.0699 7.69095 25.8937C7.69095 26.7176 7.99451 27.5077 8.53484 28.0902C9.07518 28.6727 9.80803 29 10.5722 29ZM20.1763 29C20.9404 29 21.6733 28.6727 22.2136 28.0902C22.7539 27.5077 23.0575 26.7176 23.0575 25.8937C23.0575 25.0699 22.7539 24.2798 22.2136 23.6973C21.6733 23.1148 20.9404 22.7875 20.1763 22.7875C19.4121 22.7875 18.6793 23.1148 18.1389 23.6973C17.5986 24.2798 17.295 25.0699 17.295 25.8937C17.295 26.7176 17.5986 27.5077 18.1389 28.0902C18.6793 28.6727 19.4121 29 20.1763 29Z" fill="white"/>
</svg>
