<svg width="56" height="55" viewBox="0 0 56 55" fill="none" xmlns="http://www.w3.org/2000/svg">
<path d="M16.5449 34.8205L20.3632 38.6389L28 31.0021L35.6368 38.6389L39.4551 34.8205L31.8184 27.1838L39.4551 19.547L35.6368 15.7286L28 23.3654L20.3632 15.7286L16.5449 19.547L24.1816 27.1838L16.5449 34.8205ZM8.90812 46.2756C6.26707 43.6346 4.28661 40.6512 2.96673 37.3254C1.64684 33.9996 0.98626 30.619 0.984988 27.1838C0.984986 23.7472 1.64557 20.3667 2.96673 17.0422C4.28789 13.7176 6.26835 10.7342 8.90812 8.09188C11.5492 5.45084 14.5326 3.47037 17.8584 2.15049C21.1842 0.830604 24.5647 0.170024 28 0.168751C31.4365 0.168751 34.8171 0.829331 38.1416 2.15049C41.4661 3.47165 44.4496 5.45211 47.0919 8.09188C49.7329 10.7329 51.7134 13.7163 53.0333 17.0422C54.3532 20.368 55.0137 23.7485 55.015 27.1838C55.015 30.6203 54.3551 34.0015 53.0352 37.3273C51.7153 40.6531 49.7342 43.6359 47.0919 46.2756C44.4508 48.9167 41.4674 50.8971 38.1416 52.217C34.8158 53.5369 31.4353 54.1975 28 54.1988C24.5635 54.1988 21.1823 53.5388 17.8565 52.2189C14.5307 50.8991 11.5479 48.918 8.90812 46.2756Z" fill="#FFA800"/>
</svg>
