<svg width="34" height="37" viewBox="0 0 34 37" fill="none" xmlns="http://www.w3.org/2000/svg">
<path d="M0.00242775 1.32105C0.00242775 0.970687 0.130327 0.634672 0.35799 0.386927C0.585652 0.139181 0.894429 0 1.21639 0H2.27983C4.04493 0 5.0598 1.24971 5.64736 2.49679C6.04797 3.35019 6.33689 4.39117 6.57726 5.29477H31.5728C31.9479 5.29489 32.318 5.38962 32.6538 5.57152C32.9897 5.75341 33.2823 6.01753 33.5086 6.34314C33.7348 6.66876 33.8887 7.04701 33.9581 7.44822C34.0275 7.84942 34.0105 8.26267 33.9085 8.65553L30.2763 22.5926C29.9874 23.6984 29.375 24.6714 28.532 25.3642C27.6889 26.057 26.6613 26.4317 25.6049 26.4316H13.2735C12.2083 26.432 11.1725 26.0512 10.3258 25.348C9.47903 24.6447 8.86826 23.658 8.58759 22.5398L7.02885 16.3176C7.01992 16.2897 7.01182 16.2615 7.00458 16.2331L4.50138 6.99364L4.25859 6.10326C4.01579 5.18909 3.80214 4.3806 3.48165 3.70158C3.09561 2.88253 2.74113 2.64474 2.2774 2.64474H1.21396C0.892001 2.64474 0.583224 2.50556 0.355562 2.25782C0.127899 2.01007 0 1.67406 0 1.32369L0.00242775 1.32105ZM13.3633 37C14.3292 37 15.2555 36.5825 15.9385 35.8392C16.6215 35.096 17.0052 34.0879 17.0052 33.0368C17.0052 31.9858 16.6215 30.9777 15.9385 30.2345C15.2555 29.4912 14.3292 29.0737 13.3633 29.0737C12.3974 29.0737 11.4711 29.4912 10.7881 30.2345C10.1051 30.9777 9.72143 31.9858 9.72143 33.0368C9.72143 34.0879 10.1051 35.096 10.7881 35.8392C11.4711 36.5825 12.3974 37 13.3633 37ZM25.503 37C26.4689 37 27.3952 36.5825 28.0782 35.8392C28.7612 35.096 29.1449 34.0879 29.1449 33.0368C29.1449 31.9858 28.7612 30.9777 28.0782 30.2345C27.3952 29.4912 26.4689 29.0737 25.503 29.0737C24.5371 29.0737 23.6107 29.4912 22.9278 30.2345C22.2448 30.9777 21.8611 31.9858 21.8611 33.0368C21.8611 34.0879 22.2448 35.096 22.9278 35.8392C23.6107 36.5825 24.5371 37 25.503 37Z" fill="#FFA800"/>
</svg>
