<svg width="26" height="17" viewBox="0 0 26 17" fill="none" xmlns="http://www.w3.org/2000/svg">
<path d="M13 0C6.5403 0 0 1.94985 0 5.6755C0 9.40114 6.5403 11.351 13 11.351C19.461 11.351 26 9.40114 26 5.6755C26 1.94985 19.461 0 13 0ZM6.5 12.534V16.3177C8.1081 16.6948 9.8865 16.9256 11.7 17V13.2163C9.94822 13.1501 8.20697 12.9216 6.5 12.534ZM14.3 13.2151V16.9987C16.0519 16.9339 17.7933 16.7054 19.5 16.3164V12.5328C17.7933 12.9217 16.0519 13.1502 14.3 13.2151ZM22.1 11.7256V15.5092C24.4413 14.557 26 13.1671 26 11.351V7.56733C26 9.38349 24.4413 10.7734 22.1 11.7256ZM3.9 15.5092V11.7256C1.56 10.7734 0 9.38222 0 7.56733V11.351C0 13.1659 1.56 14.557 3.9 15.5092Z" fill="#FBAF02"/>
</svg>
