<svg width="30" height="27" viewBox="0 0 30 27" fill="none" xmlns="http://www.w3.org/2000/svg">
<path d="M0 27C0 24.2721 1.14935 21.6558 3.1952 19.7269C5.24105 17.798 8.01582 16.7143 10.9091 16.7143C13.8024 16.7143 16.5771 17.798 18.623 19.7269C20.6688 21.6558 21.8182 24.2721 21.8182 27H0ZM10.9091 15.4286C6.38864 15.4286 2.72727 11.9764 2.72727 7.71429C2.72727 3.45214 6.38864 0 10.9091 0C15.4295 0 19.0909 3.45214 19.0909 7.71429C19.0909 11.9764 15.4295 15.4286 10.9091 15.4286ZM24.5455 20.5714H30V23.1429H24.5455V20.5714ZM20.4545 14.1429H30V16.7143H20.4545V14.1429ZM23.1818 7.71429H30V10.2857H23.1818V7.71429Z" fill="url(#paint0_linear_945_21471)"/>
<defs>
<linearGradient id="paint0_linear_945_21471" x1="15" y1="0" x2="15" y2="27" gradientUnits="userSpaceOnUse">
<stop stop-color="#FFDB2D"/>
<stop offset="1" stop-color="#FFAA20"/>
</linearGradient>
</defs>
</svg>
