<svg width="46" height="46" viewBox="0 0 46 46" fill="none" xmlns="http://www.w3.org/2000/svg">
<path d="M23 0C10.304 0 0 10.304 0 23C0 35.696 10.304 46 23 46C35.696 46 46 35.696 46 23C46 10.304 35.696 0 23 0ZM23 9.2C27.439 9.2 31.05 12.811 31.05 17.25C31.05 21.689 27.439 25.3 23 25.3C18.561 25.3 14.95 21.689 14.95 17.25C14.95 12.811 18.561 9.2 23 9.2ZM23 41.4C18.331 41.4 12.811 39.514 8.878 34.776C12.9067 31.6152 17.8793 29.8972 23 29.8972C28.1207 29.8972 33.0933 31.6152 37.122 34.776C33.189 39.514 27.669 41.4 23 41.4Z" fill="#FFDB2D"/>
</svg>
