<svg width="34" height="40" viewBox="0 0 34 40" fill="none" xmlns="http://www.w3.org/2000/svg">
<path d="M3.4 6.95V28.3333C3.39967 30.4491 4.22019 32.4857 5.69514 34.0302C7.17008 35.5746 9.18901 36.5112 11.3424 36.65L11.9 36.6667H26.9076C26.5561 37.6414 25.905 38.4853 25.0441 39.0823C24.1831 39.6792 23.1545 39.9999 22.1 40H10.2C7.49479 40 4.90038 38.9464 2.98751 37.0711C1.07464 35.1957 7.01205e-07 32.6522 7.01205e-07 30V11.6667C-0.000552432 10.6322 0.326155 9.62312 0.935096 8.77836C1.54404 7.93361 2.40524 7.29481 3.4 6.95ZM28.9 0C30.2526 0 31.5498 0.526784 32.5062 1.46447C33.4627 2.40215 34 3.67392 34 5V28.3333C34 29.6594 33.4627 30.9312 32.5062 31.8689C31.5498 32.8065 30.2526 33.3333 28.9 33.3333H11.9C10.5474 33.3333 9.25019 32.8065 8.29376 31.8689C7.33732 30.9312 6.8 29.6594 6.8 28.3333V5C6.8 3.67392 7.33732 2.40215 8.29376 1.46447C9.25019 0.526784 10.5474 0 11.9 0H28.9Z" fill="#FBAF02"/>
</svg>
