<svg width="18" height="20" viewBox="0 0 18 20" fill="none" xmlns="http://www.w3.org/2000/svg">
<path d="M17.386 10.3824C17.1354 10.1376 16.7955 10 16.4411 10C16.0867 10 15.7468 10.1376 15.4962 10.3824L8.88039 16.8474L2.26459 10.3824C2.01252 10.1445 1.67491 10.0128 1.32448 10.0158C0.974044 10.0188 0.638827 10.1562 0.391024 10.3983C0.143222 10.6405 0.00266154 10.968 -0.000382617 11.3105C-0.00342868 11.6529 0.131285 11.9829 0.374745 12.2292L7.93546 19.6176C8.1861 19.8625 8.52599 20 8.88039 20C9.23478 20 9.57467 19.8625 9.82531 19.6176L17.386 12.2292C17.6366 11.9843 17.7773 11.6521 17.7773 11.3058C17.7773 10.9595 17.6366 10.6273 17.386 10.3824Z" fill="white"/>
<path d="M17.386 0.3824C17.1354 0.13755 16.7955 1.07436e-06 16.4411 1.04338e-06C16.0867 1.0124e-06 15.7468 0.13755 15.4962 0.3824L8.88039 6.84743L2.26459 0.382399C2.01252 0.144488 1.67491 0.0128439 1.32448 0.0158196C0.974044 0.0187954 0.638827 0.156153 0.391024 0.398308C0.143222 0.640464 0.00266235 0.968042 -0.000382843 1.31049C-0.00342804 1.65294 0.131286 1.98285 0.374745 2.22918L7.93546 9.6176C8.1861 9.86245 8.52599 10 8.88039 10C9.23478 10 9.57467 9.86245 9.82531 9.6176L17.386 2.22918C17.6366 1.98425 17.7773 1.65211 17.7773 1.30579C17.7773 0.959467 17.6366 0.627324 17.386 0.3824Z" fill="white"/>
</svg>
