<svg width="256" height="256" viewBox="0 0 256 256" fill="none" xmlns="http://www.w3.org/2000/svg">
<circle cx="128" cy="128" r="126" stroke="#00A1BA" stroke-width="4"/>
<circle cx="128" cy="128" r="105" fill="#00A1BA"/>
<path d="M111.008 150.582C111.838 155.123 113.425 158.639 115.769 161.129C118.112 163.57 121.53 164.791 126.022 164.791C131.198 164.791 135.129 162.984 137.814 159.371C140.549 155.709 141.916 151.119 141.916 145.602C141.916 140.182 140.646 135.616 138.107 131.905C135.568 128.146 131.613 126.266 126.242 126.266C123.703 126.266 121.506 126.583 119.65 127.218C116.379 128.39 113.913 130.562 112.253 133.736L93.5029 132.857L100.974 74.1904H159.494V91.915H116.062L112.253 115.133C115.476 113.033 117.99 111.642 119.797 110.958C122.824 109.835 126.511 109.273 130.856 109.273C139.646 109.273 147.312 112.228 153.854 118.136C160.397 124.044 163.669 132.638 163.669 143.917C163.669 153.731 160.52 162.496 154.221 170.211C147.922 177.926 138.498 181.783 125.949 181.783C115.842 181.783 107.541 179.073 101.047 173.653C94.5527 168.233 90.9395 160.543 90.207 150.582H111.008Z" fill="white"/>
</svg>
