<svg width="886" height="851" viewBox="0 0 886 851" fill="none" xmlns="http://www.w3.org/2000/svg">
<path d="M424.419 718.437L423.433 721.78C421.827 721.724 420.692 721.741 420.026 721.83C418.957 721.969 418.011 722.341 417.188 722.946C416.615 723.36 416.111 723.932 415.678 724.662C415.408 725.099 415.241 725.427 415.177 725.645L411.024 725.318L418.419 700.333L423.536 700.735L418.443 717.967L424.419 718.437Z" fill="black"/>
<path d="M395.418 700.763C393.951 700.51 392.699 701.078 391.662 702.469C390.611 703.869 389.525 705.958 388.402 708.737C387.244 711.653 386.615 713.851 386.513 715.332C386.4 716.811 387.077 717.678 388.544 717.931C390.01 718.185 391.262 717.652 392.298 716.332C393.335 715.013 394.433 712.896 395.591 709.98C396.713 707.201 397.332 705.03 397.447 703.469C397.561 701.918 396.884 701.017 395.418 700.763ZM383.31 707.857C384.916 703.865 386.795 700.902 388.949 698.967C391.092 697.03 393.762 696.338 396.961 696.891C400.16 697.444 401.975 698.912 402.408 701.293C402.829 703.673 402.237 706.859 400.631 710.851C399.037 714.845 397.162 717.815 395.006 719.762C392.85 721.708 390.173 722.405 386.974 721.852C383.775 721.299 381.966 719.827 381.547 717.435C381.128 715.044 381.716 711.851 383.31 707.857Z" fill="black"/>
<path d="M370.118 695.159C368.681 694.771 367.382 695.221 366.22 696.51C365.044 697.807 363.769 699.787 362.394 702.45C360.971 705.246 360.14 707.376 359.902 708.842C359.653 710.304 360.247 711.229 361.683 711.617C363.12 712.005 364.416 711.591 365.57 710.373C366.725 709.155 368.013 707.149 369.436 704.353C370.811 701.689 371.629 699.586 371.888 698.041C372.144 696.508 371.554 695.548 370.118 695.159ZM357.405 701.102C359.373 697.276 361.519 694.499 363.843 692.772C366.156 691.042 368.879 690.6 372.013 691.447C375.146 692.294 376.818 693.923 377.029 696.335C377.228 698.743 376.343 701.861 374.375 705.687C372.418 709.516 370.276 712.3 367.949 714.038C365.622 715.777 362.891 716.222 359.758 715.376C356.624 714.529 354.959 712.896 354.763 710.476C354.567 708.056 355.448 704.931 357.405 701.102Z" fill="black"/>
<path d="M336.501 700.299C336.063 700.957 335.946 701.617 336.15 702.278C336.339 702.945 336.793 703.422 337.512 703.707C338.231 703.993 339.002 704.003 339.826 703.737C340.635 703.479 341.258 703.02 341.696 702.362C342.134 701.703 342.259 701.041 342.07 700.373C341.866 699.712 341.405 699.239 340.686 698.953C339.967 698.668 339.203 698.655 338.394 698.913C337.57 699.179 336.939 699.641 336.501 700.299ZM342.803 695.765C344.48 696.431 345.551 697.544 346.016 699.103C346.482 700.662 346.202 702.209 345.176 703.744C344.151 705.278 342.684 706.354 340.774 706.97C338.865 707.586 337.072 707.561 335.395 706.895C333.718 706.229 332.646 705.117 332.181 703.558C331.716 701.999 331.996 700.452 333.021 698.917C334.047 697.383 335.514 696.307 337.423 695.691C339.321 695.07 341.114 695.095 342.803 695.765ZM328.887 686.514C329.606 686.799 330.377 686.809 331.201 686.544C332.01 686.285 332.633 685.827 333.071 685.168C333.509 684.51 333.628 683.845 333.429 683.173C333.225 682.512 332.763 682.039 332.044 681.753C331.326 681.468 330.562 681.455 329.753 681.713C328.94 681.983 328.314 682.447 327.876 683.105C327.438 683.764 327.321 684.423 327.525 685.084C327.714 685.752 328.168 686.228 328.887 686.514ZM334.178 678.572C335.855 679.238 336.926 680.35 337.391 681.909C337.846 683.464 337.566 685.011 336.551 686.55C335.521 688.095 334.054 689.171 332.149 689.776C330.24 690.393 328.447 690.368 326.77 689.702C325.093 689.036 324.021 687.923 323.556 686.364C323.091 684.805 323.371 683.258 324.396 681.724C325.411 680.185 326.878 679.109 328.798 678.497C330.707 677.881 332.5 677.906 334.178 678.572ZM322.035 701.723L319.551 700.737L347.584 683.725L350.116 684.73L322.035 701.723Z" fill="black"/>
<path d="M296.666 668.777C297.36 667.815 297.713 666.992 297.724 666.309C297.73 665.057 296.827 663.868 295.016 662.742C293.931 662.067 292.951 661.624 292.076 661.411C290.408 661.008 289.058 661.349 288.026 662.432C287.415 663.059 287.264 663.745 287.574 664.49C287.88 665.218 288.592 666.137 289.71 667.246L291.61 669.152C293.467 671.025 294.581 672.496 294.95 673.568C295.582 675.369 294.998 677.206 293.198 679.081C291.555 680.792 289.472 681.767 286.95 682.006C284.427 682.246 281.778 681.502 279.001 679.776C276.682 678.334 275.22 676.569 274.614 674.481C274.002 672.403 274.632 670.325 276.504 668.246L280.922 670.993C279.89 672.187 279.679 673.36 280.288 674.511C280.696 675.275 281.432 675.988 282.497 676.65C283.681 677.387 284.83 677.77 285.943 677.799C287.046 677.823 287.953 677.463 288.665 676.718C289.323 676.037 289.464 675.311 289.088 674.539C288.861 674.039 288.159 673.181 286.982 671.967L283.951 668.819C282.626 667.444 281.817 666.203 281.525 665.097C281.074 663.381 281.667 661.673 283.304 659.972C284.982 658.228 287.146 657.255 289.797 657.054C292.441 656.863 295.166 657.64 297.972 659.385C300.839 661.167 302.548 663.134 303.101 665.285C303.647 667.446 302.965 669.52 301.055 671.506L296.666 668.777Z" fill="black"/>
<path d="M265.567 648.806C265.967 648.863 266.346 648.948 266.703 649.06C267.053 649.181 267.493 649.379 268.021 649.653L269.069 650.194C270.056 650.717 270.836 651.029 271.409 651.13C272.375 651.297 273.23 651.061 273.974 650.421C274.645 649.857 274.945 649.305 274.874 648.762C274.787 648.222 274.475 647.745 273.936 647.33C273.082 646.672 272.049 646.276 270.836 646.141C269.624 646.006 268.348 646.481 267.01 647.566L265.567 648.806ZM266.161 652.214C265.328 651.72 264.686 651.411 264.235 651.286C263.436 651.055 262.785 651.153 262.28 651.578C261.671 652.1 261.468 652.623 261.67 653.149C261.864 653.683 262.38 654.272 263.215 654.916C264.153 655.638 265.047 655.956 265.896 655.871C266.505 655.791 267.145 655.545 267.818 655.132L271.649 658.081C270.255 659.123 268.811 659.749 267.318 659.96C264.951 660.268 262.491 659.438 259.938 657.472C258.276 656.193 257.123 654.78 256.479 653.234C255.835 651.688 256.412 650.151 258.211 648.622L265.063 642.805C265.537 642.401 266.099 641.902 266.748 641.308C267.232 640.852 267.504 640.499 267.563 640.249C267.613 639.992 267.569 639.714 267.43 639.414L267.992 638.915L272.309 642.239C272.129 642.589 271.931 642.894 271.714 643.157C271.497 643.419 271.234 643.704 270.923 644.012C272.058 643.939 273.186 644.001 274.306 644.198C275.651 644.45 276.862 644.99 277.939 645.819C279.313 646.877 280.067 648.079 280.2 649.424C280.316 650.77 279.667 652.046 278.253 653.249C276.417 654.808 274.369 655.383 272.11 654.975C270.877 654.751 269.397 654.129 267.668 653.108L266.161 652.214Z" fill="black"/>
<path d="M249.894 643.584L246.945 645.731L244.959 643.944L240.535 647.152L236.851 643.836L241.275 640.628L238.962 638.547L241.911 636.4L244.223 638.481L252.604 632.401C253.251 631.928 253.584 631.566 253.604 631.316C253.608 631.067 253.231 630.601 252.473 629.919C252.36 629.817 252.242 629.711 252.12 629.601C251.982 629.493 251.843 629.384 251.705 629.275L254.81 627.033L256.646 628.567C258.469 630.097 259.332 631.425 259.233 632.55C259.171 633.267 258.649 633.987 257.667 634.711L247.908 641.797L249.894 643.584Z" fill="black"/>
<path d="M226.846 629.744L230.416 633.359L226.435 635.907L222.865 632.292L226.846 629.744ZM232.387 632.103L228.818 628.489L245.304 617.914L248.873 621.529L232.387 632.103Z" fill="black"/>
<path d="M230.002 610.315C230.734 609.801 231.152 609.316 231.255 608.858C231.461 608.069 231.021 607.035 229.936 605.758C229.299 605.008 228.66 604.482 228.019 604.181C227.379 603.879 226.793 603.869 226.263 604.15C225.759 604.425 225.528 604.814 225.57 605.316C225.612 605.818 226.287 607.39 227.593 610.032C228.51 611.944 228.892 613.434 228.739 614.503C228.602 615.572 227.856 616.468 226.5 617.189C224.909 618.049 223.096 618.259 221.062 617.819C219.011 617.378 217.17 616.198 215.538 614.277C213.991 612.456 213.162 610.738 213.052 609.124C212.933 607.519 213.854 606.06 215.814 604.747L219.058 608.565C218.529 608.938 218.19 609.326 218.041 609.73C217.788 610.482 218.091 611.363 218.948 612.372C219.654 613.203 220.311 613.713 220.919 613.904C221.519 614.086 222.024 614.065 222.433 613.84C222.954 613.567 223.168 613.177 223.077 612.67C223.001 612.166 222.292 610.616 220.948 608.021C220.084 606.279 219.755 604.798 219.963 603.576C220.186 602.355 220.946 601.394 222.242 600.693C223.954 599.777 225.809 599.562 227.807 600.048C229.795 600.542 231.745 601.915 233.657 604.165C235.607 606.46 236.479 608.464 236.274 610.177C236.051 611.888 235.057 613.225 233.291 614.187L230.002 610.315Z" fill="black"/>
<path d="M192.184 593.962L196.002 592.279C196.131 592.518 196.384 592.906 196.76 593.444C197.126 593.989 197.534 594.302 197.983 594.382C198.415 594.459 198.804 594.416 199.149 594.252C199.5 594.099 200.006 593.877 200.664 593.587L198.734 590.927L202.038 589.464L203.968 592.124L218.394 585.698L221.326 589.739L206.899 596.165L208.541 598.428L205.237 599.89L203.627 597.671L202.476 598.18C200.561 599.033 199.04 599.341 197.911 599.103C196.411 598.99 194.845 597.809 193.214 595.561C193.028 595.305 192.872 595.07 192.747 594.857C192.605 594.642 192.417 594.344 192.184 593.962Z" fill="black"/>
<path d="M197.672 571.001C198.025 571.196 198.349 571.409 198.643 571.642C198.927 571.88 199.267 572.221 199.664 572.665L200.451 573.543C201.187 574.383 201.805 574.953 202.305 575.251C203.148 575.75 204.031 575.834 204.954 575.5C205.781 575.212 206.259 574.802 206.386 574.27C206.497 573.735 206.374 573.177 206.018 572.598C205.454 571.679 204.629 570.941 203.544 570.384C202.459 569.827 201.098 569.817 199.462 570.355L197.672 571.001ZM197.014 574.396C196.411 573.639 195.921 573.121 195.544 572.844C194.88 572.344 194.236 572.203 193.614 572.421C192.859 572.692 192.482 573.109 192.484 573.672C192.476 574.241 192.748 574.975 193.3 575.873C193.92 576.882 194.642 577.497 195.466 577.72C196.063 577.862 196.749 577.86 197.525 577.713L200.056 581.832C198.383 582.31 196.811 582.381 195.34 582.047C193.019 581.493 191.015 579.843 189.328 577.097C188.229 575.31 187.654 573.579 187.603 571.905C187.551 570.232 188.637 569 190.862 568.211L199.335 565.213C199.922 565.004 200.624 564.737 201.443 564.413C202.057 564.159 202.437 563.926 202.581 563.713C202.72 563.491 202.777 563.215 202.754 562.885L203.456 562.619L206.309 567.262C206.016 567.524 205.722 567.739 205.426 567.907C205.131 568.075 204.783 568.248 204.383 568.425C205.469 568.761 206.501 569.22 207.478 569.803C208.645 570.516 209.585 571.452 210.296 572.61C211.204 574.088 211.481 575.479 211.127 576.783C210.757 578.083 209.697 579.044 207.947 579.665C205.676 580.469 203.558 580.278 201.592 579.093C200.52 578.445 199.357 577.337 198.105 575.768L197.014 574.396Z" fill="black"/>
<path d="M181.903 547.605C181.236 547.868 180.705 548.248 180.309 548.744C179.792 549.443 179.795 550.324 180.318 551.385C181.065 552.899 182.405 553.721 184.338 553.852C185.365 553.92 186.61 553.77 188.074 553.4C189.465 553.041 190.513 552.609 191.218 552.105C192.533 551.168 192.825 549.959 192.095 548.477C191.576 547.426 190.896 546.762 190.054 546.485C189.206 546.198 188.26 546.135 187.217 546.297L184.954 541.71C186.512 541.424 188.183 541.554 189.967 542.098C192.835 542.958 194.95 544.769 196.313 547.533C197.677 550.297 197.774 552.562 196.607 554.327C195.434 556.082 193.401 557.326 190.51 558.06C187.251 558.896 184.361 558.826 181.84 557.848C179.314 556.859 177.426 555.098 176.177 552.566C175.114 550.411 174.779 548.512 175.17 546.869C175.562 545.225 177.049 543.936 179.633 543.001L181.903 547.605Z" fill="black"/>
<path d="M173.468 536.05L169.875 536.677L168.88 534.197L163.495 535.127L161.65 530.526L167.034 529.597L165.876 526.709L169.469 526.082L170.628 528.97L180.83 527.206C181.619 527.066 182.078 526.888 182.206 526.672C182.319 526.45 182.186 525.866 181.806 524.92C181.75 524.779 181.691 524.632 181.63 524.48C181.553 524.321 181.477 524.162 181.401 524.003L185.177 523.359L186.148 525.545C187.11 527.723 187.299 529.295 186.715 530.262C186.343 530.878 185.557 531.294 184.356 531.511L172.473 533.57L173.468 536.05Z" fill="black"/>
<path d="M158.882 513.469L160.493 518.287L155.796 518.819L154.185 514.001L158.882 513.469ZM162.816 518.029L161.205 513.211L180.664 510.985L182.275 515.803L162.816 518.029Z" fill="black"/>
<path d="M164.521 488.557C162.557 488.624 161.144 489.061 160.282 489.867C159.406 490.665 159.145 491.775 159.499 493.196C159.854 494.618 160.659 495.691 161.914 496.417C163.159 497.145 164.763 497.476 166.727 497.409C168.691 497.342 170.111 496.91 170.987 496.112C171.86 495.303 172.12 494.187 171.765 492.766C171.411 491.344 170.606 490.271 169.35 489.545C168.094 488.82 166.485 488.49 164.521 488.557ZM176.054 492.603C176.851 495.798 176.427 498.216 174.783 499.858C173.125 501.491 170.859 502.358 167.985 502.458C165.16 502.558 162.516 501.859 160.053 500.359C157.59 498.859 155.96 496.512 155.164 493.317C154.367 490.122 154.809 487.705 156.49 486.066C158.171 484.427 160.424 483.558 163.249 483.457C166.123 483.357 168.78 484.059 171.22 485.565C173.647 487.061 175.258 489.407 176.054 492.603Z" fill="black"/>
<path d="M155.568 456.062L168.731 456.919L169.469 461.998L157.582 461.24C156.553 461.165 155.783 461.247 155.273 461.487C154.34 461.907 153.972 462.801 154.171 464.17C154.416 465.851 155.319 467.052 156.88 467.772C157.705 468.15 158.72 468.375 159.927 468.448L170.507 469.13L171.225 474.07L151.715 472.804L151.019 468.021L153.871 468.21C152.774 467.505 151.962 466.853 151.437 466.255C150.5 465.183 149.917 463.865 149.689 462.299C149.404 460.339 149.704 458.774 150.587 457.603C151.458 456.423 153.118 455.909 155.568 456.062Z" fill="black"/>
<path d="M161.828 429.948L161.781 424.622L167.029 425.683L167.076 431.008L161.828 429.948Z" fill="black"/>
<path d="M168.794 394.117L168.229 399.466L143.04 391.274L143.605 385.925L168.794 394.117Z" fill="black"/>
<path d="M160.996 361.753L173.18 366.805L172.243 371.851L161.234 367.304C160.284 366.901 159.529 366.731 158.969 366.793C157.95 366.89 157.314 367.618 157.061 368.978C156.751 370.649 157.219 372.076 158.465 373.261C159.124 373.884 160.013 374.425 161.131 374.883L170.927 378.937L170.015 383.845L151.953 376.361L152.836 371.608L155.475 372.706C154.663 371.685 154.105 370.807 153.801 370.071C153.259 368.754 153.132 367.318 153.421 365.763C153.783 363.816 154.57 362.431 155.784 361.607C156.988 360.77 158.726 360.818 160.996 361.753Z" fill="black"/>
<path d="M163.88 336.903L155.645 332.49L157.066 327.612L180.374 340.115L179.012 344.79L176.621 343.508C177.444 344.748 177.958 345.936 178.165 347.07C178.375 348.193 178.29 349.407 177.91 350.712C177.283 352.861 175.944 354.234 173.89 354.832C171.828 355.416 169.519 355.024 166.964 353.657C164.021 352.067 161.915 350.099 160.646 347.752C159.38 345.393 159.1 343.005 159.805 340.586C160.129 339.472 160.649 338.61 161.363 338.001C162.07 337.376 162.909 337.011 163.88 336.903ZM170.616 340.367C168.503 339.238 166.829 338.995 165.592 339.635C164.84 340.039 164.33 340.702 164.061 341.624C163.651 343.031 163.851 344.334 164.661 345.534C165.463 346.72 166.602 347.711 168.079 348.507C169.673 349.362 171.048 349.714 172.203 349.562C173.346 349.407 174.117 348.649 174.513 347.288C174.91 345.926 174.736 344.637 173.992 343.419C173.252 342.19 172.126 341.173 170.616 340.367Z" fill="black"/>
<path d="M167.187 313.811L165.388 318.562L161.413 316.004L163.212 311.253L167.187 313.811ZM167.351 319.831L169.15 315.08L185.631 325.662L183.832 330.413L167.351 319.831Z" fill="black"/>
<path d="M186.372 300.573C186.404 300.976 186.404 301.364 186.372 301.737C186.329 302.105 186.232 302.577 186.08 303.153L185.78 304.293C185.484 305.371 185.349 306.2 185.375 306.781C185.422 307.76 185.839 308.543 186.625 309.13C187.321 309.662 187.926 309.835 188.44 309.648C188.948 309.446 189.346 309.036 189.634 308.421C190.09 307.444 190.252 306.349 190.12 305.136C189.988 303.923 189.247 302.782 187.897 301.712L186.372 300.573ZM183.176 301.894C183.476 300.973 183.638 300.28 183.662 299.812C183.713 298.983 183.477 298.368 182.952 297.968C182.31 297.487 181.755 297.402 181.286 297.714C180.807 298.02 180.344 298.651 179.898 299.607C179.397 300.679 179.281 301.621 179.549 302.431C179.758 303.008 180.138 303.579 180.688 304.147L178.643 308.527C177.323 307.393 176.397 306.12 175.867 304.709C175.052 302.466 175.326 299.884 176.689 296.964C177.577 295.063 178.705 293.631 180.073 292.666C181.442 291.701 183.068 291.93 184.952 293.353L192.12 298.776C192.617 299.15 193.227 299.59 193.948 300.095C194.498 300.468 194.902 300.656 195.159 300.66C195.421 300.653 195.683 300.549 195.945 300.348L196.554 300.788L194.249 305.725C193.868 305.625 193.527 305.498 193.224 305.344C192.921 305.189 192.585 304.994 192.217 304.757C192.535 305.85 192.72 306.964 192.771 308.1C192.818 309.468 192.554 310.767 191.979 311.999C191.245 313.57 190.237 314.567 188.953 314.99C187.664 315.396 186.278 315.04 184.796 313.921C182.875 312.468 181.868 310.595 181.775 308.301C181.725 307.049 182.011 305.469 182.63 303.56L183.176 301.894Z" fill="black"/>
<path d="M187.234 280.774C187.514 279.534 187.428 278.43 186.976 277.464C186.693 276.915 186.341 276.476 185.922 276.146L184.57 278.552L181.021 275.43L183.475 271.062L186.321 273.568C187.68 274.762 188.541 276.078 188.902 277.517C189.263 278.957 189.177 280.461 188.645 282.03L187.234 280.774Z" fill="black"/>
<path d="M206.456 271.543C207.152 272.105 207.734 272.372 208.202 272.345C209.018 272.325 209.89 271.617 210.817 270.221C211.362 269.401 211.691 268.642 211.804 267.943C211.916 267.244 211.764 266.678 211.348 266.247C210.944 265.838 210.507 265.723 210.036 265.902C209.565 266.082 208.24 267.164 206.062 269.15C204.478 270.56 203.151 271.338 202.082 271.486C201.017 271.65 199.95 271.18 198.882 270.077C197.616 268.785 196.913 267.101 196.774 265.024C196.631 262.931 197.257 260.836 198.652 258.737C199.975 256.746 201.397 255.475 202.917 254.924C204.428 254.366 206.084 254.848 207.887 256.369L205.114 260.542C204.61 260.136 204.143 259.917 203.714 259.885C202.921 259.851 202.158 260.385 201.425 261.488C200.822 262.395 200.512 263.168 200.497 263.805C200.488 264.432 200.648 264.911 200.977 265.242C201.384 265.668 201.818 265.766 202.279 265.538C202.743 265.326 204.037 264.216 206.16 262.208C207.594 260.896 208.928 260.171 210.159 260.032C211.394 259.91 212.528 260.375 213.559 261.427C214.913 262.819 215.632 264.542 215.717 266.596C215.791 268.644 215.011 270.897 213.376 273.357C211.709 275.865 210.024 277.257 208.322 277.532C206.616 277.792 205.056 277.206 203.644 275.774L206.456 271.543Z" fill="black"/>
<path d="M229.785 211.275L235.107 205.59L250.262 227.314L246.814 230.997L236.555 216.312C236.267 215.883 235.862 215.287 235.339 214.524C234.816 213.746 234.407 213.154 234.112 212.749L243.487 234.552L239.895 238.389L223.841 223.721C224.136 224.126 224.553 224.709 225.092 225.471C225.631 226.216 226.044 226.803 226.332 227.233L236.591 241.918L233.144 245.601L217.988 223.877L223.37 218.128L238.495 231.781L229.785 211.275Z" fill="black"/>
<path d="M262.381 204.021C261.446 202.292 260.425 201.222 259.319 200.81C258.214 200.381 257.105 200.642 255.99 201.593C254.875 202.543 254.273 203.742 254.183 205.19C254.085 206.628 254.504 208.212 255.439 209.94C256.373 211.669 257.393 212.748 258.498 213.176C259.612 213.597 260.726 213.333 261.84 212.382C262.955 211.432 263.558 210.233 263.648 208.785C263.738 207.338 263.315 205.75 262.381 204.021ZM263.898 216.149C261.392 218.286 259.038 218.984 256.836 218.244C254.635 217.487 252.85 215.844 251.479 213.316C250.131 210.832 249.579 208.153 249.824 205.28C250.069 202.406 251.445 199.901 253.95 197.765C256.456 195.628 258.817 194.947 261.033 195.722C263.249 196.497 265.031 198.126 266.38 200.611C267.75 203.139 268.305 205.83 268.045 208.686C267.786 211.525 266.403 214.012 263.898 216.149Z" fill="black"/>
<path d="M279.09 195.621C279.533 196.398 279.977 196.86 280.422 197.006C281.189 197.285 282.26 196.945 283.633 195.985C284.44 195.421 285.024 194.835 285.385 194.226C285.745 193.616 285.811 193.035 285.581 192.481C285.355 191.952 284.99 191.686 284.486 191.68C283.982 191.675 282.353 192.198 279.599 193.25C277.61 193.982 276.09 194.222 275.041 193.968C273.989 193.731 273.168 192.904 272.578 191.486C271.872 189.821 271.834 187.996 272.464 186.012C273.096 184.012 274.445 182.291 276.511 180.848C278.471 179.479 280.259 178.816 281.875 178.858C283.485 178.892 284.851 179.946 285.972 182.022L281.865 184.891C281.544 184.329 281.19 183.955 280.802 183.768C280.077 183.446 279.171 183.664 278.086 184.422C277.192 185.046 276.622 185.652 276.375 186.239C276.137 186.82 276.11 187.324 276.295 187.753C276.519 188.297 276.886 188.548 277.399 188.504C277.909 188.477 279.519 187.917 282.229 186.824C284.044 186.127 285.55 185.94 286.747 186.262C287.941 186.6 288.826 187.447 289.402 188.803C290.153 190.595 290.192 192.461 289.519 194.404C288.839 196.337 287.289 198.149 284.868 199.84C282.399 201.565 280.322 202.244 278.636 201.878C276.954 201.495 275.717 200.379 274.926 198.53L279.09 195.621Z" fill="black"/>
<path d="M292.965 175.408L291.802 171.951L294.103 170.593L292.372 165.41L296.641 162.891L298.372 168.073L301.052 166.492L302.215 169.95L299.535 171.531L302.819 181.35C303.076 182.109 303.321 182.536 303.554 182.63C303.79 182.708 304.348 182.488 305.226 181.97C305.357 181.893 305.493 181.812 305.635 181.729C305.78 181.629 305.925 181.53 306.071 181.431L307.277 185.066L305.263 186.357C303.256 187.636 301.73 188.06 300.686 187.629C300.021 187.355 299.491 186.64 299.095 185.486L295.266 174.05L292.965 175.408Z" fill="black"/>
<path d="M341.078 140.606L341.939 145.219L334.786 148.208L338.839 169.623L333.811 171.724L329.758 150.309L322.573 153.311L321.713 148.699L341.078 140.606Z" fill="black"/>
<path d="M362.471 140.629L363 145.85C362.699 145.909 362.43 145.971 362.192 146.035C361.954 146.099 361.762 146.154 361.617 146.201C359.698 146.816 358.475 147.897 357.95 149.444C357.662 150.312 357.596 151.526 357.752 153.088L358.707 162.4L353.903 163.94L351.92 144.455L356.473 142.995L356.823 146.39C357.426 144.855 357.975 143.763 358.468 143.113C359.288 142.025 360.412 141.252 361.841 140.794C361.93 140.766 362.004 140.748 362.064 140.741C362.131 140.72 362.266 140.683 362.471 140.629Z" fill="black"/>
<path d="M377.281 137.451L377.472 149.254C377.486 150.368 377.623 151.178 377.883 151.684C378.34 152.577 379.219 152.875 380.522 152.578C382.19 152.197 383.321 151.229 383.915 149.675C384.228 148.834 384.373 147.785 384.35 146.528L384.187 135.873L389.14 134.741L389.449 154.324L384.703 155.409L384.648 152.645C384.604 152.715 384.495 152.92 384.32 153.26C384.145 153.601 383.934 153.914 383.687 154.198C382.929 155.093 382.191 155.754 381.472 156.183C380.764 156.609 379.93 156.932 378.97 157.151C376.206 157.783 374.328 157.167 373.336 155.301C372.789 154.273 372.499 152.638 372.468 150.397L372.277 138.594L377.281 137.451Z" fill="black"/>
<path d="M404.083 145.752C404.115 146.646 404.295 147.261 404.622 147.597C405.173 148.199 406.279 148.393 407.941 148.179C408.917 148.053 409.706 147.803 410.308 147.43C410.91 147.057 411.237 146.572 411.29 145.974C411.334 145.401 411.134 144.996 410.69 144.758C410.245 144.519 408.559 144.229 405.632 143.886C403.529 143.614 402.071 143.123 401.259 142.412C400.436 141.715 400.092 140.602 400.225 139.072C400.371 137.269 401.182 135.634 402.658 134.167C404.145 132.687 406.138 131.786 408.637 131.464C411.008 131.158 412.9 131.398 414.313 132.184C415.724 132.959 416.447 134.526 416.479 136.885L411.511 137.526C411.486 136.88 411.346 136.384 411.088 136.039C410.595 135.417 409.691 135.191 408.378 135.361C407.297 135.5 406.511 135.773 406.02 136.179C405.54 136.584 405.283 137.019 405.249 137.484C405.194 138.07 405.405 138.462 405.879 138.661C406.344 138.873 408.03 139.122 410.938 139.408C412.87 139.632 414.291 140.163 415.203 141.002C416.105 141.855 416.497 143.015 416.379 144.484C416.215 146.419 415.386 148.092 413.89 149.502C412.392 150.901 410.179 151.789 407.25 152.167C404.263 152.553 402.108 152.193 400.784 151.088C399.469 149.969 398.89 148.408 399.045 146.403L404.083 145.752Z" fill="black"/>
<path d="M425.742 134.261L426.312 130.658L428.981 130.52L429.845 125.125L434.796 124.868L433.931 130.264L437.038 130.103L436.468 133.706L433.361 133.867L431.725 144.09C431.601 144.883 431.621 145.374 431.783 145.566C431.957 145.744 432.553 145.807 433.571 145.755C433.723 145.747 433.881 145.739 434.045 145.73C434.22 145.709 434.395 145.689 434.57 145.668L433.956 149.449L431.573 149.66C429.201 149.865 427.653 149.534 426.927 148.668C426.465 148.117 426.325 147.239 426.509 146.032L428.41 134.123L425.742 134.261Z" fill="black"/>
<path d="M448.285 137.708L456.07 137.902C456.302 136.583 456.133 135.577 455.565 134.883C455.008 134.177 454.196 133.811 453.13 133.785C451.971 133.756 450.983 134.094 450.169 134.801C449.366 135.508 448.738 136.477 448.285 137.708ZM460.697 133.569C461.184 134.718 461.356 136.041 461.213 137.538C461.144 138.416 460.902 139.676 460.486 141.318L447.376 140.991C446.989 142.904 447.271 144.259 448.224 145.056C448.798 145.551 449.571 145.811 450.544 145.835C451.575 145.861 452.484 145.59 453.272 145.024C453.69 144.718 454.105 144.289 454.517 143.736L459.631 143.864C459.228 144.991 458.361 146.124 457.032 147.263C454.947 149.075 452.428 149.944 449.476 149.87C447.039 149.809 445.073 148.975 443.577 147.367C442.094 145.759 441.771 143.195 442.609 139.676C443.395 136.378 444.835 133.87 446.929 132.153C449.035 130.435 451.429 129.61 454.112 129.677C455.705 129.717 457.069 130.05 458.202 130.676C459.347 131.302 460.178 132.267 460.697 133.569Z" fill="black"/>
<path d="M485.286 135.398L488.31 126.558L493.353 127.173L484.78 152.194L479.946 151.606L480.826 149.039C479.734 150.051 478.646 150.751 477.56 151.138C476.485 151.526 475.273 151.638 473.924 151.474C471.702 151.203 470.13 150.103 469.208 148.172C468.3 146.232 468.314 143.89 469.25 141.147C470.343 137.987 471.946 135.591 474.057 133.959C476.18 132.329 478.492 131.666 480.993 131.971C482.144 132.111 483.079 132.485 483.796 133.091C484.526 133.688 485.022 134.457 485.286 135.398ZM482.955 142.605C483.727 140.338 483.697 138.646 482.865 137.529C482.346 136.852 481.609 136.455 480.655 136.339C479.201 136.162 477.947 136.57 476.894 137.563C475.853 138.546 475.059 139.83 474.512 141.416C473.925 143.128 473.8 144.541 474.137 145.656C474.475 146.76 475.347 147.397 476.755 147.569C478.162 147.74 479.407 147.361 480.488 146.43C481.581 145.501 482.404 144.226 482.955 142.605Z" fill="black"/>
<path d="M526.788 135.014L522.688 149.275L521.342 153.183L524.074 149.792L534.283 137.314L539.745 138.99L535.308 153.148L534.012 157.071L536.741 153.753L547.509 141.373L552.768 142.987L532.933 164.003L527.993 162.487L532.522 148.027L534.126 143.279L530.774 147.49L520.263 160.114L515.456 158.639L521.293 133.328L526.788 135.014Z" fill="black"/>
<path d="M556.891 161.099L564.021 164.229C564.736 163.097 564.962 162.102 564.698 161.244C564.45 160.38 563.838 159.734 562.862 159.305C561.799 158.839 560.757 158.778 559.736 159.123C558.725 159.473 557.776 160.131 556.891 161.099ZM569.945 161.973C569.961 163.221 569.618 164.511 568.919 165.842C568.523 166.628 567.821 167.702 566.813 169.064L554.806 163.793C553.722 165.416 553.47 166.778 554.05 167.877C554.394 168.552 555.011 169.085 555.901 169.476C556.845 169.891 557.789 169.985 558.733 169.76C559.236 169.635 559.783 169.395 560.374 169.04L565.057 171.096C564.257 171.986 563.026 172.706 561.364 173.257C558.748 174.143 556.088 173.993 553.384 172.806C551.152 171.826 549.649 170.309 548.874 168.254C548.11 166.204 548.783 163.709 550.892 160.77C552.869 158.016 555.152 156.241 557.741 155.445C560.341 154.653 562.87 154.797 565.327 155.876C566.786 156.516 567.922 157.341 568.733 158.35C569.555 159.364 569.959 160.571 569.945 161.973Z" fill="black"/>
<path d="M592.626 181.244C590.62 183.533 588.342 185.085 585.792 185.901C583.251 186.722 580.881 186.518 578.682 185.288C577.301 184.516 576.407 183.653 576 182.701C575.754 182.133 575.655 181.326 575.703 180.279L574.083 182.132L569.803 179.738L587.219 159.832L591.576 162.269L585.377 169.355C586.528 168.978 587.596 168.797 588.582 168.811C589.758 168.797 590.954 169.131 592.171 169.812C594.37 171.041 595.477 172.701 595.49 174.789C595.514 176.884 594.559 179.035 592.626 181.244ZM587.689 179.087C588.608 178.043 589.214 177.093 589.505 176.236C590.053 174.608 589.544 173.357 587.979 172.482C586.394 171.595 584.748 171.621 583.041 172.56C582.142 173.064 581.224 173.853 580.287 174.927C579.18 176.188 578.578 177.408 578.481 178.59C578.394 179.776 579.001 180.733 580.3 181.46C581.425 182.089 582.651 182.177 583.978 181.724C585.306 181.272 586.542 180.393 587.689 179.087Z" fill="black"/>
<path d="M601.534 191.646C600.959 192.331 600.681 192.908 600.698 193.376C600.703 194.192 601.394 195.078 602.771 196.032C603.58 196.593 604.333 196.937 605.029 197.063C605.726 197.19 606.294 197.049 606.734 196.641C607.151 196.245 607.274 195.81 607.104 195.336C606.934 194.862 605.877 193.516 603.935 191.299C602.556 189.688 601.804 188.346 601.677 187.275C601.534 186.206 602.025 185.148 603.149 184.103C604.465 182.862 606.163 182.192 608.242 182.094C610.337 181.992 612.42 182.659 614.491 184.095C616.456 185.457 617.699 186.903 618.22 188.434C618.748 189.955 618.234 191.602 616.677 193.375L612.56 190.52C612.975 190.024 613.203 189.562 613.244 189.133C613.294 188.341 612.775 187.568 611.686 186.813C610.791 186.192 610.025 185.868 609.388 185.84C608.761 185.819 608.279 185.969 607.941 186.291C607.508 186.69 607.401 187.122 607.62 187.588C607.823 188.056 608.908 189.371 610.874 191.533C612.157 192.993 612.856 194.34 612.97 195.574C613.068 196.812 612.581 197.936 611.509 198.947C610.091 200.273 608.354 200.958 606.298 201.002C604.25 201.036 602.012 200.212 599.585 198.529C597.11 196.814 595.752 195.102 595.51 193.394C595.284 191.683 595.9 190.136 597.359 188.751L601.534 191.646Z" fill="black"/>
<path d="M635.618 198.233L631.672 195.034L635.347 192.063L639.294 195.261L635.618 198.233ZM629.85 196.5L633.797 199.698L618.578 212.027L614.632 208.828L629.85 196.5Z" fill="black"/>
<path d="M637.995 208.393L640.96 206.268L642.933 208.069L647.38 204.893L651.04 208.235L646.594 211.411L648.891 213.509L645.927 215.635L643.629 213.537L635.206 219.557C634.556 220.026 634.219 220.386 634.198 220.635C634.192 220.884 634.566 221.353 635.319 222.04C635.432 222.143 635.548 222.25 635.67 222.36C635.807 222.47 635.945 222.58 636.083 222.69L632.961 224.91L631.136 223.363C629.324 221.819 628.471 220.485 628.578 219.361C628.645 218.644 629.172 217.928 630.16 217.211L639.969 210.195L637.995 208.393Z" fill="black"/>
<path d="M651.386 226.855L656.718 232.53C657.819 231.769 658.417 230.942 658.511 230.049C658.622 229.157 658.312 228.323 657.582 227.545C656.788 226.7 655.853 226.236 654.778 226.152C653.711 226.077 652.58 226.312 651.386 226.855ZM663.052 232.778C662.577 233.932 661.756 234.984 660.591 235.934C659.918 236.502 658.851 237.214 657.39 238.073L648.412 228.515C646.778 229.583 646.013 230.737 646.115 231.975C646.166 232.731 646.524 233.464 647.19 234.173C647.897 234.924 648.728 235.381 649.685 235.544C650.196 235.626 650.793 235.62 651.476 235.525L654.978 239.253C653.893 239.758 652.478 239.938 650.733 239.792C647.979 239.582 645.591 238.401 643.569 236.248C641.9 234.472 641.112 232.486 641.206 230.292C641.307 228.107 642.904 226.076 645.997 224.199C648.896 222.441 651.692 221.703 654.386 221.986C657.087 222.278 659.357 223.402 661.195 225.358C662.286 226.519 663.007 227.723 663.358 228.969C663.716 230.224 663.615 231.494 663.052 232.778Z" fill="black"/>
<path d="M670.551 259.554L673.655 263.882L668.754 266.035L665.649 261.707L670.551 259.554Z" fill="black"/>
<path d="M716.629 296.626L720.185 303.553L694.622 310.492L692.318 306.003L709.603 301.299C710.105 301.174 710.803 300.993 711.696 300.758C712.606 300.529 713.301 300.343 713.782 300.202L690.094 301.672L687.694 296.996L706.918 286.831C706.437 286.972 705.748 287.168 704.849 287.419C703.966 287.675 703.273 287.866 702.771 287.991L685.487 292.695L683.183 288.207L708.746 281.269L712.342 288.275L694.386 297.908L716.629 296.626Z" fill="black"/>
<path d="M719.289 320.635L707.624 322.439C706.521 322.606 705.738 322.853 705.272 323.179C704.45 323.754 704.275 324.666 704.748 325.915C705.354 327.515 706.467 328.503 708.088 328.88C708.964 329.074 710.023 329.074 711.265 328.88L721.798 327.26L723.596 332.011L704.24 334.998L702.516 330.444L705.247 330.012C705.171 329.978 704.953 329.898 704.592 329.771C704.23 329.645 703.892 329.479 703.576 329.272C702.586 328.645 701.83 328.004 701.307 327.35C700.787 326.707 700.354 325.925 700.005 325.004C699.001 322.352 699.355 320.408 701.067 319.17C702.011 318.487 703.591 317.977 705.806 317.639L717.472 315.835L719.289 320.635Z" fill="black"/>
<path d="M708.824 349.936L707.422 345.126L733.837 343.161L735.239 347.971L708.824 349.936Z" fill="black"/>
<path d="M726.864 358.048L730.511 357.99L731.106 360.595L736.57 360.518L737.674 365.351L732.21 365.427L732.903 368.461L729.256 368.519L728.563 365.486L718.211 365.633C717.409 365.648 716.928 365.752 716.768 365.945C716.621 366.147 716.662 366.745 716.889 367.738C716.923 367.887 716.958 368.041 716.995 368.201C717.045 368.37 717.096 368.539 717.146 368.707L713.316 368.753L712.698 366.442C712.088 364.141 712.147 362.559 712.875 361.696C713.339 361.145 714.18 360.856 715.4 360.83L727.459 360.653L726.864 358.048Z" fill="black"/>
<path d="M737.744 382.632L736.905 377.621L741.627 377.829L742.466 382.839L737.744 382.632ZM734.57 377.513L735.408 382.523L715.841 381.681L715.002 376.671L734.57 377.513Z" fill="black"/>
<path d="M733.652 402.832C733.494 401.023 732.511 399.674 730.704 398.785C729.746 398.328 728.554 398.009 727.126 397.828C724.867 397.555 723.331 397.949 722.518 399.008C722.045 399.649 721.851 400.449 721.934 401.406C722.056 402.795 722.696 403.921 723.854 404.785C725.012 405.648 726.5 406.188 728.319 406.405C729.817 406.591 731.114 406.419 732.208 405.888C733.303 405.357 733.784 404.338 733.652 402.832ZM729.019 411.584C725.595 411.167 722.918 410.09 720.99 408.353C719.063 406.628 717.995 404.574 717.786 402.193C717.653 400.675 717.929 399.463 718.614 398.556C718.994 398.052 719.571 397.59 720.346 397.169L710.214 395.921L709.781 390.983L736.876 394.31L737.295 399.09L734.423 398.742C735.315 399.381 736.031 400.036 736.572 400.706C737.536 401.916 738.086 403.285 738.22 404.815C738.415 407.044 737.742 408.827 736.2 410.162C734.659 411.508 732.266 411.982 729.019 411.584Z" fill="black"/>
<path d="M719.306 424.789L719.261 419.779L745.22 425.05L745.264 430.06L719.306 424.789Z" fill="black"/>
<path d="M730.303 442.201L729.79 449.971C731.098 450.257 732.11 450.13 732.827 449.59C733.555 449.063 733.954 448.267 734.024 447.203C734.101 446.045 733.803 445.045 733.13 444.202C732.457 443.371 731.515 442.704 730.303 442.201ZM733.929 454.772C732.761 455.211 731.432 455.329 729.942 455.125C729.068 455.02 727.819 454.726 726.195 454.243L727.06 441.158C725.165 440.693 723.799 440.919 722.963 441.839C722.445 442.392 722.154 443.154 722.09 444.124C722.022 445.153 722.255 446.073 722.788 446.883C723.077 447.314 723.489 447.746 724.024 448.181L723.687 453.285C722.577 452.836 721.481 451.923 720.397 450.548C718.672 448.391 717.907 445.839 718.102 442.892C718.263 440.46 719.177 438.529 720.845 437.101C722.513 435.685 725.087 435.467 728.569 436.449C731.832 437.369 734.279 438.911 735.909 441.074C737.539 443.248 738.265 445.675 738.088 448.352C737.983 449.943 737.595 451.291 736.923 452.398C736.25 453.516 735.252 454.307 733.929 454.772Z" fill="black"/>
<path d="M732.171 496.255L733.286 491.335L726.203 488.072L725.088 492.992C724.806 494.237 724.874 495.34 725.294 496.301C725.713 497.261 726.549 498.027 727.801 498.599C729.05 499.183 730.021 499.247 730.713 498.791C731.403 498.346 731.889 497.501 732.171 496.255ZM720.843 491.525L722.059 486.159L713.408 482.18L714.597 476.934L738.65 488.027L736.156 499.033C735.581 501.57 734.503 503.302 732.923 504.23C731.34 505.169 729.248 505.043 726.646 503.853C723.808 502.537 721.973 500.853 721.14 498.802C720.307 496.751 720.208 494.325 720.843 491.525Z" fill="black"/>
<path d="M712.491 519.971C712.413 519.574 712.369 519.189 712.358 518.815C712.359 518.444 712.402 517.964 712.488 517.375L712.656 516.208C712.827 515.104 712.867 514.264 712.775 513.69C712.616 512.723 712.113 511.992 711.265 511.498C710.513 511.049 709.892 510.947 709.403 511.191C708.921 511.45 708.572 511.902 708.357 512.546C708.015 513.569 707.978 514.675 708.248 515.865C708.517 517.054 709.383 518.104 710.846 519.013L712.491 519.971ZM715.516 518.295C715.323 519.244 715.24 519.951 715.27 520.418C715.313 521.249 715.618 521.833 716.185 522.17C716.878 522.575 717.439 522.596 717.869 522.233C718.311 521.874 718.699 521.194 719.033 520.194C719.408 519.072 719.417 518.123 719.058 517.348C718.784 516.799 718.342 516.275 717.731 515.774L719.264 511.189C720.705 512.165 721.769 513.324 722.457 514.667C723.522 516.802 723.544 519.398 722.522 522.454C721.856 524.444 720.899 525.996 719.649 527.11C718.399 528.224 716.757 528.182 714.724 526.983L706.985 522.411C706.448 522.096 705.793 521.728 705.018 521.309C704.43 521.001 704.007 520.86 703.752 520.885C703.492 520.922 703.244 521.055 703.006 521.285L702.351 520.917L704.079 515.749C704.468 515.805 704.822 515.893 705.14 516.012C705.459 516.131 705.815 516.287 706.207 516.48C705.767 515.43 705.457 514.344 705.276 513.221C705.074 511.868 705.188 510.547 705.619 509.258C706.169 507.613 707.058 506.508 708.285 505.942C709.52 505.391 710.937 505.587 712.537 506.53C714.611 507.755 715.825 509.502 716.178 511.77C716.37 513.008 716.267 514.611 715.868 516.578L715.516 518.295Z" fill="black"/>
<path d="M695.751 527.773L695.464 528.338C695.248 528.768 695.075 529.204 694.945 529.646C694.814 530.087 694.774 530.512 694.825 530.918C694.87 531.31 695.104 531.81 695.527 532.419C695.95 533.029 696.23 533.351 696.369 533.386L715.792 538.918L713.543 544.017L700.137 539.39L710.258 551.463L708.109 556.336L695.139 539.049C692.638 535.717 691.177 533.453 690.758 532.256C690.322 531.065 690.552 529.456 691.446 527.43C691.625 527.022 691.775 526.698 691.894 526.456C692.003 526.209 692.18 525.852 692.425 525.383L695.751 527.773Z" fill="black"/>
<path d="M688.552 587.076C687.78 587.073 686.977 586.82 686.144 586.319C685.599 585.973 684.856 585.375 683.914 584.525L674.806 576.179L677.399 571.75L686.622 580.142C687.172 580.641 687.682 580.953 688.152 581.078C689.051 581.305 689.802 580.903 690.406 579.872C691.105 578.678 691.154 577.458 690.553 576.21C690.228 575.559 689.744 574.936 689.101 574.342L680.472 566.501L683.02 562.147L691.649 569.988C692.506 570.774 693.189 571.242 693.699 571.392C694.611 571.667 695.377 571.274 695.999 570.212C696.721 568.978 696.857 567.829 696.408 566.764C696.142 566.174 695.615 565.52 694.828 564.801L686.11 556.867L688.676 552.483L703.131 565.648L700.671 569.851L698.561 567.923C699 569.144 699.239 570.139 699.278 570.909C699.357 572.259 699.005 573.601 698.224 574.936C697.484 576.2 696.641 577.003 695.694 577.345C694.876 577.559 694.018 577.505 693.12 577.183C693.641 578.52 693.854 579.792 693.759 580.999C693.64 582.246 693.26 583.416 692.621 584.509C692.195 585.237 691.651 585.842 690.989 586.323C690.327 586.805 689.514 587.056 688.552 587.076Z" fill="black"/>
<path d="M674.478 596.258L669.804 602.487C670.744 603.441 671.661 603.888 672.557 603.827C673.454 603.783 674.223 603.334 674.863 602.481C675.56 601.553 675.856 600.552 675.753 599.479C675.643 598.415 675.218 597.341 674.478 596.258ZM670.651 608.77C669.432 608.5 668.254 607.873 667.118 606.888C666.443 606.323 665.557 605.395 664.46 604.103L672.33 593.614C670.997 592.189 669.729 591.633 668.526 591.947C667.79 592.127 667.13 592.607 666.547 593.385C665.928 594.21 665.621 595.107 665.625 596.078C665.632 596.595 665.741 597.183 665.952 597.839L662.882 601.931C662.198 600.948 661.777 599.585 661.621 597.842C661.354 595.092 662.107 592.537 663.879 590.174C665.342 588.225 667.162 587.107 669.339 586.821C671.51 586.545 673.785 587.769 676.166 590.493C678.397 593.046 679.605 595.673 679.789 598.375C679.967 601.087 679.251 603.516 677.64 605.663C676.684 606.938 675.622 607.855 674.455 608.415C673.28 608.985 672.012 609.103 670.651 608.77Z" fill="black"/>
<path d="M649.242 628.259L641.562 617.535L645.023 613.744L651.97 623.419C652.564 624.263 653.116 624.806 653.625 625.049C654.541 625.505 655.466 625.222 656.398 624.201C657.544 622.946 657.9 621.486 657.468 619.822C657.237 618.945 656.768 618.017 656.06 617.037L649.882 608.422L653.248 604.735L664.634 620.629L661.375 624.199L659.714 621.873C659.864 623.168 659.874 624.209 659.744 624.994C659.509 626.399 658.858 627.685 657.792 628.853C656.456 630.316 655.056 631.076 653.59 631.135C652.126 631.21 650.676 630.251 649.242 628.259Z" fill="black"/>
<path d="M643.755 636.883L645.637 640.008L643.683 641.831L646.492 646.518L642.867 649.899L640.058 645.212L637.783 647.334L635.901 644.209L638.177 642.087L632.852 633.208C632.436 632.522 632.105 632.158 631.857 632.116C631.609 632.091 631.113 632.426 630.367 633.122C630.256 633.225 630.14 633.333 630.02 633.445C629.899 633.574 629.779 633.702 629.658 633.831L627.696 630.541L629.384 628.846C631.068 627.164 632.466 626.42 633.578 626.617C634.287 626.741 634.959 627.324 635.594 628.366L641.802 638.706L643.755 636.883Z" fill="black"/>
<path d="M599.252 668.847C600.397 671.587 601.799 673.346 603.459 674.125C605.115 674.92 606.827 674.709 608.594 673.494C610.36 672.278 611.461 670.56 611.897 668.34C612.323 666.127 611.965 663.642 610.823 660.886C609.68 658.13 608.275 656.366 606.606 655.595C604.936 654.823 603.219 655.044 601.452 656.26C599.685 657.475 598.593 659.187 598.177 661.393C597.751 663.607 598.109 666.091 599.252 668.847ZM593.846 659.594C594.663 656.585 596.597 654.031 599.648 651.932C602.699 649.833 605.428 649.179 607.835 649.969C610.964 650.817 613.438 653.44 615.254 657.838C617.114 662.319 617.429 666.426 616.2 670.16C615.382 673.169 613.448 675.723 610.397 677.822C607.347 679.921 604.618 680.575 602.21 679.784C599.124 679.02 596.651 676.397 594.791 671.916C592.975 667.519 592.66 663.411 593.846 659.594Z" fill="black"/>
<path d="M578.202 683.465C579.802 682.607 580.656 681.172 580.761 679.161C580.804 678.101 580.628 676.879 580.232 675.496C579.593 673.312 578.627 672.055 577.333 671.725C576.557 671.542 575.745 671.678 574.899 672.132C573.669 672.791 572.886 673.823 572.549 675.227C572.211 676.631 572.301 678.212 572.817 679.969C573.236 681.42 573.905 682.544 574.824 683.341C575.743 684.138 576.869 684.179 578.202 683.465ZM568.332 682.653C567.368 679.34 567.304 676.456 568.141 674C568.968 671.549 570.435 669.758 572.542 668.629C573.884 667.909 575.108 667.685 576.211 667.958C576.824 668.109 577.476 668.457 578.168 669.004L575.325 659.199L579.694 656.857L587.305 683.072L583.076 685.34L582.265 682.563C582.028 683.634 581.708 684.55 581.305 685.311C580.574 686.674 579.531 687.719 578.178 688.444C576.205 689.501 574.302 689.584 572.468 688.693C570.623 687.807 569.245 685.794 568.332 682.653Z" fill="black"/>
<path d="M562.041 691.517L562.776 695.089L560.328 696.159L561.42 701.513L556.878 703.498L555.785 698.143L552.934 699.389L552.198 695.816L555.05 694.571L552.978 684.427C552.814 683.642 552.622 683.188 552.403 683.067C552.177 682.961 551.598 683.112 550.663 683.52C550.524 683.581 550.379 683.644 550.228 683.71C550.072 683.791 549.916 683.872 549.759 683.953L549.001 680.198L551.157 679.161C553.304 678.133 554.87 677.897 555.854 678.452C556.481 678.804 556.921 679.578 557.174 680.772L559.592 692.586L562.041 691.517Z" fill="black"/>
<path d="M539.91 706.782L544.677 705.025L545.351 709.704L540.584 711.46L539.91 706.782ZM544.348 702.711L539.582 704.467L536.767 685.085L541.534 683.329L544.348 702.711Z" fill="black"/>
<path d="M514.839 701.899C514.966 703.86 515.445 705.259 516.277 706.096C517.101 706.947 518.219 707.174 519.629 706.777C521.039 706.38 522.087 705.543 522.774 704.266C523.465 703 523.747 701.386 523.621 699.425C523.494 697.464 523.019 696.058 522.195 695.207C521.359 694.358 520.237 694.133 518.827 694.53C517.417 694.927 516.368 695.764 515.681 697.042C514.994 698.319 514.713 699.938 514.839 701.899ZM518.534 690.248C521.703 689.355 524.133 689.705 525.824 691.299C527.507 692.907 528.442 695.145 528.629 698.015C528.815 700.836 528.196 703.5 526.771 706.007C525.347 708.515 523.05 710.215 519.88 711.108C516.711 712 514.282 711.632 512.593 710.001C510.904 708.371 509.966 706.145 509.78 703.324C509.593 700.455 510.215 697.778 511.645 695.293C513.068 692.822 515.364 691.141 518.534 690.248Z" fill="black"/>
<path d="M482.631 711.831L483.089 698.649L488.144 697.756L487.746 709.661C487.702 710.692 487.808 711.459 488.063 711.961C488.511 712.882 489.416 713.222 490.778 712.981C492.451 712.686 493.624 711.747 494.297 710.165C494.649 709.329 494.843 708.307 494.88 707.099L495.241 696.503L500.157 695.636L499.483 715.175L494.722 716.016L494.825 713.159C494.154 714.277 493.527 715.108 492.945 715.651C491.902 716.621 490.602 717.243 489.044 717.518C487.093 717.862 485.52 717.61 484.323 716.763C483.117 715.928 482.553 714.284 482.631 711.831Z" fill="black"/>
<path d="M468.253 706.442C468.265 705.547 468.116 704.924 467.806 704.573C467.286 703.943 466.191 703.694 464.52 703.826C463.539 703.903 462.739 704.113 462.119 704.455C461.499 704.798 461.148 705.266 461.066 705.861C460.993 706.43 461.173 706.845 461.604 707.105C462.036 707.365 463.705 707.74 466.612 708.228C468.699 708.605 470.13 709.168 470.906 709.918C471.693 710.656 471.982 711.785 471.772 713.306C471.537 715.1 470.645 716.692 469.097 718.083C467.538 719.487 465.503 720.288 462.991 720.485C460.608 720.672 458.73 720.338 457.358 719.482C455.987 718.638 455.344 717.037 455.429 714.679L460.423 714.286C460.415 714.934 460.531 715.436 460.771 715.793C461.233 716.439 462.124 716.709 463.444 716.606C464.531 716.52 465.329 716.287 465.84 715.906C466.339 715.526 466.618 715.104 466.675 714.641C466.759 714.059 466.569 713.656 466.104 713.434C465.651 713.2 463.979 712.867 461.089 712.436C459.171 712.116 457.778 711.514 456.909 710.631C456.051 709.734 455.718 708.555 455.908 707.095C456.168 705.17 457.081 703.541 458.645 702.207C460.21 700.885 462.465 700.108 465.409 699.877C468.411 699.641 470.546 700.108 471.814 701.278C473.071 702.46 473.572 704.049 473.317 706.044L468.253 706.442Z" fill="black"/>
</svg>
