<svg width="19" height="19" viewBox="0 0 19 19" fill="none" xmlns="http://www.w3.org/2000/svg">
<path fill-rule="evenodd" clip-rule="evenodd" d="M0.851562 9.39453C0.851562 5.79939 0.851562 4.00182 1.70825 2.70708C2.09081 2.12892 2.58595 1.63378 3.16412 1.25122C4.45885 0.394531 6.25642 0.394531 9.85156 0.394531C13.4467 0.394531 15.2443 0.394531 16.539 1.25122C17.1172 1.63378 17.6123 2.12892 17.9949 2.70708C18.8516 4.00182 18.8516 5.79939 18.8516 9.39453C18.8516 12.9897 18.8516 14.7872 17.9949 16.082C17.6123 16.6601 17.1172 17.1553 16.539 17.5378C15.2443 18.3945 13.4467 18.3945 9.85156 18.3945C6.25642 18.3945 4.45885 18.3945 3.16412 17.5378C2.58595 17.1553 2.09081 16.6601 1.70825 16.082C0.851562 14.7872 0.851562 12.9897 0.851562 9.39453ZM14.5141 9.39506C14.5141 11.9684 12.428 14.0545 9.85469 14.0545C7.28137 14.0545 5.19528 11.9684 5.19528 9.39506C5.19528 6.82174 7.28137 4.73565 9.85469 4.73565C12.428 4.73565 14.5141 6.82174 14.5141 9.39506ZM9.85469 12.4781C11.5574 12.4781 12.9377 11.0978 12.9377 9.39506C12.9377 7.69237 11.5574 6.31206 9.85469 6.31206C8.152 6.31206 6.77169 7.69237 6.77169 9.39506C6.77169 11.0978 8.152 12.4781 9.85469 12.4781ZM14.6964 5.59639C15.301 5.59639 15.7912 5.10622 15.7912 4.50156C15.7912 3.89691 15.301 3.40674 14.6964 3.40674C14.0917 3.40674 13.6016 3.89691 13.6016 4.50156C13.6016 5.10622 14.0917 5.59639 14.6964 5.59639Z" fill="white"/>
</svg>
