<svg width="45" height="27" viewBox="0 0 45 27" fill="none" xmlns="http://www.w3.org/2000/svg">
<path d="M35.625 23.1429V27H13.125V23.1429C13.125 23.1429 13.125 15.4286 24.375 15.4286C35.625 15.4286 35.625 23.1429 35.625 23.1429ZM30 5.78572C30 4.64141 29.6701 3.5228 29.052 2.57135C28.4339 1.61989 27.5554 0.878321 26.5276 0.440414C25.4998 0.00250687 24.3688 -0.11207 23.2776 0.111173C22.1865 0.334417 21.1842 0.885452 20.3975 1.6946C19.6109 2.50375 19.0751 3.53466 18.8581 4.65698C18.641 5.7793 18.7524 6.94261 19.1782 7.99981C19.6039 9.05701 20.3249 9.96062 21.2499 10.5964C22.1749 11.2321 23.2625 11.5714 24.375 11.5714C25.8668 11.5714 27.2976 10.9619 28.3525 9.87683C29.4074 8.7918 30 7.32018 30 5.78572ZM36 15.5443C37.0249 16.5169 37.8512 17.6897 38.4307 18.9943C39.0102 20.299 39.3312 21.7092 39.375 23.1429V27H45V23.1429C45 23.1429 45 16.4893 36 15.5443ZM33.75 2.20147e-06C33.1835 0.000350913 32.6205 0.0914421 32.0813 0.270002C33.1782 1.88801 33.7664 3.81314 33.7664 5.78572C33.7664 7.75829 33.1782 9.68342 32.0813 11.3014C32.6205 11.48 33.1835 11.5711 33.75 11.5714C35.2418 11.5714 36.6726 10.9619 37.7275 9.87683C38.7824 8.7918 39.375 7.32018 39.375 5.78572C39.375 4.25125 38.7824 2.77963 37.7275 1.6946C36.6726 0.609567 35.2418 2.20147e-06 33.75 2.20147e-06ZM15 9.64286H9.375V3.85715H5.625V9.64286H0V13.5H5.625V19.2857H9.375V13.5H15V9.64286Z" fill="white"/>
</svg>
