<svg width="36" height="39" viewBox="0 0 36 39" fill="none" xmlns="http://www.w3.org/2000/svg">
<path fill-rule="evenodd" clip-rule="evenodd" d="M15.5922 0.134062C19.3062 -0.69568 22.0003 2.47243 22.0003 5.6048V33.3952C22.0003 36.5276 19.3062 39.6957 15.5922 38.8659C6.66808 36.873 0 28.9606 0 19.5C0 10.0394 6.66808 2.12703 15.5922 0.134062ZM26.5863 12.1415C26.9614 11.7694 27.47 11.5603 28.0003 11.5603C28.5307 11.5603 29.0393 11.7694 29.4144 12.1415L35.4144 18.0966C35.7894 18.4688 36 18.9736 36 19.5C36 20.0264 35.7894 20.5312 35.4144 20.9034L29.4144 26.8585C29.0371 27.2201 28.5319 27.4202 28.0075 27.4156C27.4831 27.4111 26.9815 27.2024 26.6107 26.8343C26.2399 26.4663 26.0295 25.9684 26.025 25.4479C26.0204 24.9275 26.222 24.4261 26.5863 24.0517L29.1723 21.485H12.0001C11.4697 21.485 10.961 21.2759 10.5859 20.9036C10.2108 20.5314 10.0001 20.0265 10.0001 19.5C10.0001 18.9735 10.2108 18.4686 10.5859 18.0964C10.961 17.7241 11.4697 17.515 12.0001 17.515H29.1723L26.5863 14.9483C26.2114 14.5761 26.0007 14.0713 26.0007 13.5449C26.0007 13.0186 26.2114 12.5137 26.5863 12.1415Z" fill="white"/>
</svg>
