<svg width="20" height="26" viewBox="0 0 20 26" fill="none" xmlns="http://www.w3.org/2000/svg">
<path d="M16.8621 14.656C16.8621 20.0348 11.353 23.3486 10.2081 23.9798C10.1446 24.0148 10.0734 24.0331 10.001 24.0331C9.92852 24.0331 9.85727 24.0148 9.79385 23.9798C8.6481 23.3486 3.14062 20.0348 3.14062 14.656C3.14062 10.368 5.71341 7.36646 10.0014 7.36646C14.2894 7.36646 16.8621 10.368 16.8621 14.656Z" stroke="#FFDB2D" stroke-width="1.4" stroke-linecap="round" stroke-linejoin="round"/>
<path d="M6.57031 14.2273C6.57031 15.137 6.93173 16.0096 7.57505 16.6529C8.21837 17.2962 9.0909 17.6576 10.0007 17.6576C10.9105 17.6576 11.783 17.2962 12.4263 16.6529C13.0697 16.0096 13.4311 15.137 13.4311 14.2273C13.4311 13.3175 13.0697 12.4449 12.4263 11.8016C11.783 11.1583 10.9105 10.7969 10.0007 10.7969C9.0909 10.7969 8.21837 11.1583 7.57505 11.8016C6.93173 12.4449 6.57031 13.3175 6.57031 14.2273V14.2273Z" stroke="#FFDB2D" stroke-width="1.4" stroke-linecap="round" stroke-linejoin="round"/>
</svg>
