<svg width="20" height="15" viewBox="0 0 20 15" fill="none" xmlns="http://www.w3.org/2000/svg">
<path d="M18.3346 2.94946V11.2828C18.3346 11.8353 18.1151 12.3652 17.7244 12.7559C17.3337 13.1466 16.8038 13.3661 16.2513 13.3661H3.7513C3.19877 13.3661 2.66886 13.1466 2.27816 12.7559C1.88746 12.3652 1.66797 11.8353 1.66797 11.2828V2.94946" stroke="#FFDB2D" stroke-width="1.4" stroke-linecap="round" stroke-linejoin="round"/>
<path d="M18.3346 2.94954C18.3346 2.39701 18.1151 1.86711 17.7244 1.47641C17.3337 1.0857 16.8038 0.866211 16.2513 0.866211H3.7513C3.19877 0.866211 2.66886 1.0857 2.27816 1.47641C1.88746 1.86711 1.66797 2.39701 1.66797 2.94954L8.89714 7.46343C9.22824 7.67038 9.61084 7.7801 10.0013 7.7801C10.3918 7.7801 10.7744 7.67038 11.1055 7.46343L18.3346 2.94954Z" stroke="#FFDB2D" stroke-width="1.4" stroke-linecap="round" stroke-linejoin="round"/>
</svg>
