<svg width="97" height="77" viewBox="0 0 97 77" fill="none" xmlns="http://www.w3.org/2000/svg">
<path d="M92.9517 0H63.5024C61.4803 0 58.6482 1.17306 57.2199 2.60135L20.7078 39.1135C20.0193 39.8052 19.6328 40.7414 19.6328 41.7173C19.6328 42.6932 20.0193 43.6294 20.7078 44.3211L52.3117 75.925C53.0034 76.6135 53.9396 77 54.9155 77C55.8914 77 56.8276 76.6135 57.5193 75.925L94.0315 39.4129C95.4647 37.9797 96.6328 35.1526 96.6328 33.1304V3.68115C96.6302 2.70565 96.2416 1.77084 95.5518 1.08105C94.862 0.391258 93.9272 0.002591 92.9517 0ZM74.5459 29.4492C73.5787 29.4489 72.6211 29.2581 71.7277 28.8877C70.8343 28.5173 70.0226 27.9745 69.3389 27.2904C68.6553 26.6063 68.1131 25.7942 67.7433 24.9006C67.3734 24.0069 67.1833 23.0492 67.1836 22.082C67.1839 21.1149 67.3747 20.1572 67.7451 19.2638C68.1155 18.3704 68.6583 17.5587 69.3424 16.8751C70.0265 16.1914 70.8386 15.6492 71.7322 15.2794C72.6259 14.9096 73.5836 14.7194 74.5508 14.7197C76.5041 14.7204 78.3771 15.4969 79.7578 16.8785C81.1385 18.2602 81.9138 20.1337 81.9131 22.0869C81.9125 24.0402 81.1359 25.9132 79.7543 27.2939C78.3727 28.6746 76.4992 29.4499 74.5459 29.4492Z" fill="white"/>
<path d="M8.28512 41.7197L50.0049 0H43.8696C41.8474 0 39.0154 1.17306 37.5871 2.60135L1.07497 39.1135C0.386504 39.8052 0 40.7414 0 41.7173C0 42.6932 0.386504 43.6294 1.07497 44.3211L32.6789 75.925C33.3706 76.6135 34.3068 77 35.2827 77C36.2586 77 37.1948 76.6135 37.8865 75.925L40.1934 73.6182L8.29003 41.7148L8.28512 41.7197Z" fill="white"/>
</svg>
