<svg width="24" height="24" viewBox="0 0 24 24" fill="none" xmlns="http://www.w3.org/2000/svg">
<path fill-rule="evenodd" clip-rule="evenodd" d="M11.8321 2.36641C10.1765 2.36611 8.54976 2.80004 7.11429 3.6249C5.67881 4.44976 4.48479 5.63669 3.6514 7.06723C2.81801 8.49776 2.3744 10.1219 2.36485 11.7774C2.35529 13.433 2.78013 15.0621 3.59696 16.5022C4.14905 15.7846 4.85876 15.2037 5.67122 14.8042C6.48367 14.4048 7.3771 14.1975 8.28245 14.1985H15.3817C16.287 14.1975 17.1805 14.4048 17.9929 14.8042C18.8054 15.2037 19.5151 15.7846 20.0672 16.5022C20.884 15.0621 21.3088 13.433 21.2993 11.7774C21.2897 10.1219 20.8461 8.49776 20.0127 7.06723C19.1793 5.63669 17.9853 4.44976 16.5498 3.6249C15.1144 2.80004 13.4876 2.36611 11.8321 2.36641ZM21.2303 19.0212C22.8122 16.9588 23.6679 14.4313 23.6641 11.8321C23.6641 5.29721 18.3669 0 11.8321 0C5.29722 0 1.33149e-05 5.29721 1.33149e-05 11.8321C-0.00389296 14.4313 0.851809 16.9589 2.43387 19.0212L2.42795 19.0425L2.84799 19.5312C3.9577 20.8286 5.33554 21.8699 6.88654 22.5834C8.43754 23.2969 10.1248 23.6656 11.8321 23.6641C14.2308 23.6685 16.5736 22.9399 18.5467 21.5757C19.3879 20.9946 20.1507 20.3074 20.8161 19.5312L21.2362 19.0425L21.2303 19.0212ZM11.8321 4.73282C10.8906 4.73282 9.98779 5.1068 9.3221 5.77248C8.65642 6.43816 8.28245 7.34102 8.28245 8.28244C8.28245 9.22385 8.65642 10.1267 9.3221 10.7924C9.98779 11.4581 10.8906 11.8321 11.8321 11.8321C12.7735 11.8321 13.6763 11.4581 14.342 10.7924C15.0077 10.1267 15.3817 9.22385 15.3817 8.28244C15.3817 7.34102 15.0077 6.43816 14.342 5.77248C13.6763 5.1068 12.7735 4.73282 11.8321 4.73282Z" fill="white"/>
</svg>
