<svg width="23" height="24" viewBox="0 0 23 24" fill="none" xmlns="http://www.w3.org/2000/svg">
<path d="M0.00160524 0.844906C0.00160524 0.620823 0.086173 0.405917 0.236704 0.247467C0.387235 0.0890164 0.591399 0 0.804283 0H1.50743C2.67452 0 3.34556 0.799281 3.73406 1.59687C3.99894 2.14268 4.18998 2.80847 4.34891 3.38638H20.876C21.1241 3.38646 21.3688 3.44704 21.5908 3.56338C21.8129 3.67971 22.0063 3.84864 22.156 4.05689C22.3056 4.26514 22.4073 4.50706 22.4532 4.76366C22.4991 5.02026 22.4879 5.28456 22.4204 5.53582L20.0188 14.4496C19.8277 15.1568 19.4228 15.7791 18.8654 16.2222C18.308 16.6653 17.6286 16.905 16.9301 16.9049H8.77648C8.07217 16.9051 7.38732 16.6616 6.82744 16.2118C6.26757 15.762 5.86373 15.1309 5.67814 14.4158L4.6475 10.4363C4.64159 10.4184 4.63624 10.4004 4.63145 10.3822L2.97633 4.47293L2.81579 3.90347C2.65526 3.31879 2.51399 2.80171 2.30208 2.36743C2.04683 1.84358 1.81245 1.6915 1.50582 1.6915H0.802678C0.589794 1.6915 0.38563 1.60248 0.235099 1.44403C0.0845673 1.28558 0 1.07068 0 0.846595L0.00160524 0.844906ZM8.83587 23.6641C9.47452 23.6641 10.087 23.3971 10.5386 22.9217C10.9902 22.4464 11.2439 21.8017 11.2439 21.1294C11.2439 20.4572 10.9902 19.8124 10.5386 19.3371C10.087 18.8617 9.47452 18.5947 8.83587 18.5947C8.19722 18.5947 7.58473 18.8617 7.13314 19.3371C6.68154 19.8124 6.42784 20.4572 6.42784 21.1294C6.42784 21.8017 6.68154 22.4464 7.13314 22.9217C7.58473 23.3971 8.19722 23.6641 8.83587 23.6641ZM16.8626 23.6641C17.5013 23.6641 18.1138 23.3971 18.5654 22.9217C19.017 22.4464 19.2707 21.8017 19.2707 21.1294C19.2707 20.4572 19.017 19.8124 18.5654 19.3371C18.1138 18.8617 17.5013 18.5947 16.8626 18.5947C16.224 18.5947 15.6115 18.8617 15.1599 19.3371C14.7083 19.8124 14.4546 20.4572 14.4546 21.1294C14.4546 21.8017 14.7083 22.4464 15.1599 22.9217C15.6115 23.3971 16.224 23.6641 16.8626 23.6641Z" fill="white"/>
</svg>
