<svg width="24" height="24" viewBox="0 0 24 24" fill="none" xmlns="http://www.w3.org/2000/svg">
<path d="M12.3448 0.189364C12.2019 0.0671558 12.0201 0 11.8321 0C11.644 0 11.4622 0.0671558 11.3193 0.189364L0 9.89163V21.2977C0 21.9253 0.249318 22.5272 0.693106 22.971C1.13689 23.4148 1.7388 23.6641 2.36641 23.6641H8.67684C8.88605 23.6641 9.08668 23.581 9.23461 23.4331C9.38254 23.2852 9.46565 23.0845 9.46565 22.8753V18.1425C9.46565 17.5149 9.71497 16.913 10.1588 16.4692C10.6025 16.0254 11.2044 15.7761 11.8321 15.7761C12.4597 15.7761 13.0616 16.0254 13.5054 16.4692C13.9492 16.913 14.1985 17.5149 14.1985 18.1425V22.8753C14.1985 23.0845 14.2816 23.2852 14.4295 23.4331C14.5774 23.581 14.7781 23.6641 14.9873 23.6641H21.2977C21.9253 23.6641 22.5272 23.4148 22.971 22.971C23.4148 22.5272 23.6641 21.9253 23.6641 21.2977V9.89163L12.3448 0.189364Z" fill="#FFA800"/>
</svg>
