<svg width="23" height="24" viewBox="0 0 23 24" fill="none" xmlns="http://www.w3.org/2000/svg">
<path d="M11.5044 8.73239C10.6929 8.73239 9.93301 9.04354 9.35764 9.6122C8.78498 10.1809 8.46745 10.9319 8.46745 11.7339C8.46745 12.536 8.78498 13.287 9.35764 13.8557C9.93301 14.4217 10.6929 14.7355 11.5044 14.7355C12.3159 14.7355 13.0758 14.4217 13.6512 13.8557C14.2238 13.287 14.5414 12.536 14.5414 11.7339C14.5414 10.9319 14.2238 10.1809 13.6512 9.6122C13.3702 9.33232 13.0357 9.11041 12.6671 8.95937C12.2986 8.80834 11.9034 8.73118 11.5044 8.73239ZM22.6942 15.0493L20.9193 13.5499C21.0034 13.0402 21.0468 12.5199 21.0468 12.0022C21.0468 11.4845 21.0034 10.9614 20.9193 10.4545L22.6942 8.95502C22.8283 8.84158 22.9243 8.69048 22.9694 8.52182C23.0145 8.35316 23.0065 8.17494 22.9466 8.01084L22.9222 7.9411C22.4337 6.59104 21.7018 5.33963 20.7619 4.2475L20.713 4.19117C20.5989 4.05853 20.4468 3.96319 20.2767 3.9177C20.1067 3.87221 19.9267 3.87871 19.7604 3.93635L17.5566 4.71155C16.7424 4.05169 15.836 3.53131 14.8535 3.1692L14.4274 0.891881C14.3952 0.720324 14.311 0.562495 14.186 0.439363C14.0609 0.316231 13.9009 0.233624 13.7272 0.202517L13.6539 0.189106C12.2426 -0.0630352 10.7554 -0.0630352 9.34407 0.189106L9.27079 0.202517C9.09709 0.233624 8.93707 0.316231 8.812 0.439363C8.68693 0.562495 8.60273 0.720324 8.57058 0.891881L8.14177 3.17993C7.1686 3.54493 6.26203 4.06404 5.45762 4.71691L3.23756 3.93635C3.07137 3.87825 2.89123 3.87152 2.72108 3.91703C2.55092 3.96255 2.39881 4.05817 2.28495 4.19117L2.2361 4.2475C1.29785 5.3408 0.566093 6.5919 0.0757508 7.9411L0.0513247 8.01084C-0.0708054 8.34613 0.0296128 8.72166 0.303727 8.95502L2.1004 10.4706C2.01626 10.9748 1.97555 11.4898 1.97555 11.9995C1.97555 12.5145 2.01626 13.0295 2.1004 13.5284L0.309155 15.044C0.175072 15.1574 0.0791064 15.3085 0.0340201 15.4772C-0.0110661 15.6458 -0.00313728 15.824 0.0567526 15.9881L0.0811787 16.0579C0.572413 17.4071 1.29705 18.6544 2.24152 19.7515L2.29038 19.8078C2.40451 19.9404 2.55663 20.0358 2.72669 20.0813C2.89674 20.1268 3.07675 20.1203 3.24299 20.0626L5.46305 19.2821C6.27182 19.9392 7.17287 20.4596 8.14719 20.8191L8.57601 23.1071C8.60815 23.2787 8.69236 23.4365 8.81743 23.5596C8.9425 23.6828 9.10251 23.7654 9.27622 23.7965L9.3495 23.8099C10.7747 24.0634 12.2342 24.0634 13.6593 23.8099L13.7326 23.7965C13.9063 23.7654 14.0663 23.6828 14.1914 23.5596C14.3165 23.4365 14.4007 23.2787 14.4328 23.1071L14.8589 20.8298C15.8414 20.465 16.7479 19.9473 17.5621 19.2874L19.7658 20.0626C19.932 20.1207 20.1122 20.1275 20.2823 20.0819C20.4525 20.0364 20.6046 19.9408 20.7185 19.8078L20.7673 19.7515C21.7118 18.649 22.4364 17.4071 22.9277 16.0579L22.9521 15.9881C23.0688 15.6555 22.9684 15.2827 22.6942 15.0493ZM11.5044 16.4495C8.86912 16.4495 6.7332 14.3385 6.7332 11.7339C6.7332 9.12938 8.86912 7.01837 11.5044 7.01837C14.1397 7.01837 16.2756 9.12938 16.2756 11.7339C16.2756 14.3385 14.1397 16.4495 11.5044 16.4495Z" fill="white"/>
</svg>
