<svg width="28" height="24" viewBox="0 0 28 24" fill="none" xmlns="http://www.w3.org/2000/svg">
<path d="M3.32321 3H24.6768C25.5157 3 26.2021 2.325 26.2021 1.5C26.2021 0.675 25.5157 0 24.6768 0H3.32321C2.48431 0 1.79795 0.675 1.79795 1.5C1.79795 2.325 2.48431 3 3.32321 3ZM26.4461 5.7C26.3088 5.01 25.6835 4.5 24.9513 4.5H3.04866C2.31654 4.5 1.69118 5.01 1.55391 5.7L0.0286512 13.2C-0.15438 14.13 0.562491 15 1.5234 15H1.79795V22.5C1.79795 23.325 2.48431 24 3.32321 24H15.5253C16.3641 24 17.0505 23.325 17.0505 22.5V15H23.1515V22.5C23.1515 23.325 23.8379 24 24.6768 24C25.5157 24 26.2021 23.325 26.2021 22.5V15H26.4766C27.4375 15 28.1544 14.13 27.9713 13.2L26.4461 5.7ZM14 21H4.84846V15H14V21Z" fill="white"/>
</svg>
