<svg width="82" height="87" viewBox="0 0 82 87" fill="none" xmlns="http://www.w3.org/2000/svg">
<path d="M44.0211 50.025V50.025C44.0211 53.4502 42.2991 56.5865 40.6223 59.5732C39.5098 61.5549 38.8421 63.7971 38.8421 66.12V81.345V81.345C38.8421 84.1044 36.9544 87 34.195 87H8.63158C3.84105 87 0 83.1285 0 78.3V8.7C0 6.39262 0.909396 4.17974 2.52813 2.54817C4.14687 0.916604 6.34234 0 8.63158 0V0C11.0151 0 12.9474 1.93224 12.9474 4.31579V21.0474C12.9474 25.1769 17.4595 27.7212 20.9931 25.5843V25.5843C22.68 24.5641 24.7937 24.5641 26.4806 25.5843V25.5843C30.0142 27.7212 34.5263 25.1769 34.5263 21.0474V10.9793C34.5263 4.9156 39.4419 0 45.5056 0H60.4211C62.7103 0 64.9058 0.916604 66.5245 2.54817C68.1432 4.17974 69.0526 6.39262 69.0526 8.7V26.5778C69.0526 28.812 66.971 30.45 64.7368 30.45V30.45C53.5158 30.45 44.0211 39.411 44.0211 50.025ZM76.8211 60.9H69.1382C63.1321 60.9 58.2632 56.0311 58.2632 50.025V50.025C58.2632 46.545 61.2842 44.37 64.7368 44.37C68.1895 44.37 71.2105 46.545 71.2105 50.025V50.025C71.2105 51.2262 72.1843 52.2 73.3855 52.2H74.6461C75.8473 52.2 76.8211 51.2262 76.8211 50.025V50.025C76.8211 43.935 70.779 39.15 64.7368 39.15C58.6947 39.15 52.6526 43.935 52.6526 50.025V52.8475C52.6526 57.2948 47.4737 61.6727 47.4737 66.12V66.12V81.345C47.4737 84.39 50.0632 87 52.6526 87H76.3895C79.4105 87 82 84.39 82 81.78V66.555C82 63.51 79.4105 60.9 76.8211 60.9Z" fill="white"/>
</svg>
