<svg width="38" height="38" viewBox="0 0 38 38" fill="none" xmlns="http://www.w3.org/2000/svg">
<path d="M27.1225 28.7375L26.315 27.93C26.03 27.645 25.6899 27.5025 25.2947 27.5025C24.8995 27.5025 24.5588 27.645 24.2725 27.93C23.9875 28.215 23.845 28.5475 23.845 28.9275C23.845 29.3075 23.9875 29.64 24.2725 29.925L26.125 31.7775C26.41 32.0625 26.7425 32.205 27.1225 32.205C27.5025 32.205 27.835 32.0625 28.12 31.7775L32.7275 27.265C33.0125 26.98 33.155 26.6393 33.155 26.2428C33.155 25.8463 33.0125 25.5062 32.7275 25.2225C32.4425 24.9375 32.1018 24.795 31.7053 24.795C31.3088 24.795 30.9687 24.9375 30.685 25.2225L27.1225 28.7375ZM26.6 11.4C27.1383 11.4 27.5899 11.2176 27.9547 10.8528C28.3195 10.488 28.5013 10.0371 28.5 9.5C28.5 8.96167 28.3176 8.5101 27.9528 8.1453C27.588 7.7805 27.1371 7.59874 26.6 7.6H7.6C7.06167 7.6 6.6101 7.7824 6.2453 8.1472C5.8805 8.512 5.69873 8.96294 5.7 9.5C5.7 10.0383 5.8824 10.4899 6.2472 10.8547C6.612 11.2195 7.06293 11.4013 7.6 11.4H26.6ZM28.5 38C25.8717 38 23.6316 37.0734 21.7797 35.2203C19.9278 33.3672 19.0013 31.1271 19 28.5C19 25.8717 19.9266 23.6309 21.7797 21.7778C23.6328 19.9247 25.8729 18.9987 28.5 19C31.1283 19 33.3691 19.9266 35.2222 21.7797C37.0753 23.6328 38.0013 25.8729 38 28.5C38 31.1283 37.0734 33.3691 35.2203 35.2222C33.3672 37.0753 31.1271 38.0013 28.5 38ZM3.8 3.22581e-06H30.4C31.445 3.22581e-06 32.3399 0.372403 33.0847 1.1172C33.8295 1.862 34.2013 2.75627 34.2 3.8V16.4825C33.3133 16.0392 32.3868 15.7143 31.4203 15.5078C30.4538 15.3013 29.4804 15.1987 28.5 15.2H7.6C7.06167 15.2 6.6101 15.3824 6.2453 15.7472C5.8805 16.112 5.69873 16.5629 5.7 17.1C5.7 17.6383 5.8824 18.0899 6.2472 18.4547C6.612 18.8195 7.06293 19.0013 7.6 19H19.19C18.6517 19.5383 18.1532 20.1242 17.6947 20.7575C17.2362 21.3908 16.8321 22.0717 16.4825 22.8H7.6C7.06167 22.8 6.6101 22.9824 6.2453 23.3472C5.8805 23.712 5.69873 24.1629 5.7 24.7C5.7 25.2383 5.8824 25.6899 6.2472 26.0547C6.612 26.4195 7.06293 26.6013 7.6 26.6H15.3425C15.2792 26.9167 15.2393 27.2257 15.2228 27.5272C15.2063 27.8287 15.1987 28.1529 15.2 28.5C15.2 29.83 15.3824 31.1049 15.7472 32.3247C16.112 33.5445 16.6579 34.7079 17.385 35.815C17.2267 35.8467 17.0601 35.8226 16.8853 35.7428C16.7105 35.663 16.5604 35.5604 16.435 35.435L14.915 33.915C14.725 33.725 14.5033 33.63 14.25 33.63C13.9967 33.63 13.775 33.725 13.585 33.915L12.065 35.435C11.875 35.625 11.6533 35.72 11.4 35.72C11.1467 35.72 10.925 35.625 10.735 35.435L9.215 33.915C9.025 33.725 8.80333 33.63 8.55 33.63C8.29667 33.63 8.075 33.725 7.885 33.915L6.365 35.435C6.175 35.625 5.95333 35.72 5.7 35.72C5.44667 35.72 5.225 35.625 5.035 35.435L3.515 33.915C3.325 33.725 3.10333 33.63 2.85 33.63C2.59667 33.63 2.375 33.725 2.185 33.915L0.665 35.435L0 35.8625V3.8C0 2.755 0.3724 1.8601 1.1172 1.1153C1.862 0.370503 2.75627 -0.00126344 3.8 3.22581e-06Z" fill="white"/>
</svg>
