<svg width="39" height="39" viewBox="0 0 39 39" fill="none" xmlns="http://www.w3.org/2000/svg">
<path fill-rule="evenodd" clip-rule="evenodd" d="M10.8333 8.66667C10.8333 6.36812 11.7464 4.16372 13.3717 2.53841C14.9971 0.913092 17.2015 0 19.5 0C21.7985 0 24.0029 0.913092 25.6283 2.53841C27.2536 4.16372 28.1667 6.36812 28.1667 8.66667C28.1667 10.9652 27.2536 13.1696 25.6283 14.7949C24.0029 16.4202 21.7985 17.3333 19.5 17.3333C17.2015 17.3333 14.9971 16.4202 13.3717 14.7949C11.7464 13.1696 10.8333 10.9652 10.8333 8.66667ZM10.8333 21.6667C7.96016 21.6667 5.20465 22.808 3.17301 24.8397C1.14137 26.8713 0 29.6268 0 32.5C0 34.2239 0.68482 35.8772 1.90381 37.0962C3.12279 38.3152 4.77609 39 6.5 39H32.5C34.2239 39 35.8772 38.3152 37.0962 37.0962C38.3152 35.8772 39 34.2239 39 32.5C39 29.6268 37.8586 26.8713 35.827 24.8397C33.7953 22.808 31.0398 21.6667 28.1667 21.6667H10.8333Z" fill="#FBAF02"/>
</svg>
