<svg width="30" height="38" viewBox="0 0 30 38" fill="none" xmlns="http://www.w3.org/2000/svg">
<path fill-rule="evenodd" clip-rule="evenodd" d="M4.1357 0.657783C11.3512 -0.219261 18.6487 -0.219261 25.8642 0.657783C27.0119 0.803539 28.0658 1.35764 28.8276 2.21573C29.5893 3.07382 30.0063 4.17667 29.9999 5.31657V36.4167C30 36.6845 29.931 36.9479 29.7996 37.1823C29.6681 37.4167 29.4785 37.6145 29.2483 37.757C29.0182 37.8996 28.7551 37.9823 28.4837 37.9975C28.2123 38.0126 27.9414 37.9597 27.6964 37.8436L21.6964 35.0066L15.6964 37.8436C15.4791 37.9466 15.2411 38 15 38C14.7589 38 14.5208 37.9466 14.3035 37.8436L8.30355 35.0066L2.30357 37.8436C2.05856 37.9597 1.78767 38.0126 1.51625 37.9975C1.24483 37.9823 0.981743 37.8996 0.751606 37.757C0.52147 37.6145 0.331805 37.4167 0.200356 37.1823C0.0689082 36.9479 -2.70726e-05 36.6845 7.9757e-09 36.4167V5.31657C7.9757e-09 2.98823 1.72714 0.9512 4.1357 0.657783ZM14.4685 11.206C14.6304 11.0683 14.7627 10.9001 14.8577 10.7113C14.9527 10.5225 15.0085 10.317 15.0219 10.1067C15.0352 9.89641 15.0058 9.68562 14.9353 9.48667C14.8649 9.28773 14.7549 9.10463 14.6117 8.94812C14.4685 8.7916 14.295 8.66482 14.1014 8.5752C13.9079 8.48558 13.6981 8.43492 13.4844 8.4262C13.2707 8.41748 13.0574 8.45086 12.8569 8.5244C12.6565 8.59794 12.473 8.71015 12.3171 8.85446L6.95998 13.604C6.79286 13.7525 6.65925 13.9338 6.56779 14.1364C6.47634 14.3389 6.42908 14.5581 6.42908 14.7798C6.42908 15.0015 6.47634 15.2207 6.56779 15.4232C6.65925 15.6258 6.79286 15.8071 6.95998 15.9556L12.3171 20.7051C12.6352 20.9759 13.0484 21.1131 13.468 21.0872C13.8876 21.0614 14.2802 20.8747 14.5616 20.567C14.8431 20.2594 14.991 19.8554 14.9736 19.4416C14.9562 19.0278 14.7749 18.6372 14.4685 18.3536L12.2228 16.363H16.3392C17.4048 16.363 18.4268 16.78 19.1803 17.5222C19.9338 18.2645 20.3571 19.2712 20.3571 20.3209C20.3571 21.3707 19.9338 22.3774 19.1803 23.1196C18.4268 23.8619 17.4048 24.2789 16.3392 24.2789C15.913 24.2789 15.5042 24.4457 15.2028 24.7426C14.9014 25.0395 14.7321 25.4422 14.7321 25.8621C14.7321 26.282 14.9014 26.6847 15.2028 26.9816C15.5042 27.2785 15.913 27.4453 16.3392 27.4453C18.2573 27.4453 20.0968 26.6947 21.4531 25.3586C22.8094 24.0225 23.5714 22.2104 23.5714 20.3209C23.5714 18.4314 22.8094 16.6193 21.4531 15.2833C20.0968 13.9472 18.2573 13.1966 16.3392 13.1966H12.225L14.4685 11.206Z" fill="white"/>
</svg>
