<svg width="252" height="59" viewBox="0 0 252 59" fill="none" xmlns="http://www.w3.org/2000/svg">
<rect x="32" y="6" width="188" height="47" rx="23.5" fill="#898989"/>
<path d="M58.8975 27.592C57.3935 26.792 56.6415 25.536 56.6415 23.824C56.6415 22.96 56.8655 22.176 57.3135 21.472C57.7615 20.752 58.4415 20.184 59.3535 19.768C60.2655 19.336 61.3855 19.12 62.7135 19.12C64.0415 19.12 65.1535 19.336 66.0495 19.768C66.9615 20.184 67.6415 20.752 68.0895 21.472C68.5375 22.176 68.7615 22.96 68.7615 23.824C68.7615 24.688 68.5535 25.44 68.1375 26.08C67.7375 26.72 67.1935 27.224 66.5055 27.592C67.3695 28.008 68.0335 28.584 68.4975 29.32C68.9615 30.04 69.1935 30.888 69.1935 31.864C69.1935 33 68.9055 33.984 68.3295 34.816C67.7535 35.632 66.9695 36.256 65.9775 36.688C65.0015 37.12 63.9135 37.336 62.7135 37.336C61.5135 37.336 60.4175 37.12 59.4255 36.688C58.4495 36.256 57.6735 35.632 57.0975 34.816C56.5215 33.984 56.2335 33 56.2335 31.864C56.2335 30.872 56.4655 30.016 56.9295 29.296C57.3935 28.56 58.0495 27.992 58.8975 27.592ZM64.7775 24.448C64.7775 23.792 64.5855 23.288 64.2015 22.936C63.8335 22.568 63.3375 22.384 62.7135 22.384C62.0895 22.384 61.5855 22.568 61.2015 22.936C60.8335 23.304 60.6495 23.816 60.6495 24.472C60.6495 25.096 60.8415 25.592 61.2255 25.96C61.6095 26.312 62.1055 26.488 62.7135 26.488C63.3215 26.488 63.8175 26.304 64.2015 25.936C64.5855 25.568 64.7775 25.072 64.7775 24.448ZM62.7135 29.368C61.9615 29.368 61.3535 29.576 60.8895 29.992C60.4255 30.392 60.1935 30.952 60.1935 31.672C60.1935 32.344 60.4175 32.896 60.8655 33.328C61.3295 33.76 61.9455 33.976 62.7135 33.976C63.4815 33.976 64.0815 33.76 64.5135 33.328C64.9615 32.896 65.1855 32.344 65.1855 31.672C65.1855 30.968 64.9535 30.408 64.4895 29.992C64.0415 29.576 63.4495 29.368 62.7135 29.368ZM74.46 27.592C72.956 26.792 72.204 25.536 72.204 23.824C72.204 22.96 72.428 22.176 72.876 21.472C73.324 20.752 74.004 20.184 74.916 19.768C75.828 19.336 76.948 19.12 78.276 19.12C79.604 19.12 80.716 19.336 81.612 19.768C82.524 20.184 83.204 20.752 83.652 21.472C84.1 22.176 84.324 22.96 84.324 23.824C84.324 24.688 84.116 25.44 83.7 26.08C83.3 26.72 82.756 27.224 82.068 27.592C82.932 28.008 83.596 28.584 84.06 29.32C84.524 30.04 84.756 30.888 84.756 31.864C84.756 33 84.468 33.984 83.892 34.816C83.316 35.632 82.532 36.256 81.54 36.688C80.564 37.12 79.476 37.336 78.276 37.336C77.076 37.336 75.98 37.12 74.988 36.688C74.012 36.256 73.236 35.632 72.66 34.816C72.084 33.984 71.796 33 71.796 31.864C71.796 30.872 72.028 30.016 72.492 29.296C72.956 28.56 73.612 27.992 74.46 27.592ZM80.34 24.448C80.34 23.792 80.148 23.288 79.764 22.936C79.396 22.568 78.9 22.384 78.276 22.384C77.652 22.384 77.148 22.568 76.764 22.936C76.396 23.304 76.212 23.816 76.212 24.472C76.212 25.096 76.404 25.592 76.788 25.96C77.172 26.312 77.668 26.488 78.276 26.488C78.884 26.488 79.38 26.304 79.764 25.936C80.148 25.568 80.34 25.072 80.34 24.448ZM78.276 29.368C77.524 29.368 76.916 29.576 76.452 29.992C75.988 30.392 75.756 30.952 75.756 31.672C75.756 32.344 75.98 32.896 76.428 33.328C76.892 33.76 77.508 33.976 78.276 33.976C79.044 33.976 79.644 33.76 80.076 33.328C80.524 32.896 80.748 32.344 80.748 31.672C80.748 30.968 80.516 30.408 80.052 29.992C79.604 29.576 79.012 29.368 78.276 29.368ZM98.3265 22.552L92.3025 37H88.1025L94.1985 23.008H86.7345V19.504H98.3265V22.552ZM111.17 22.552L105.146 37H100.946L107.042 23.008H99.5783V19.504H111.17V22.552ZM124.014 22.552L117.99 37H113.79L119.886 23.008H112.422V19.504H124.014V22.552ZM125.674 28C125.674 25.248 126.202 23.08 127.258 21.496C128.33 19.912 130.05 19.12 132.418 19.12C134.786 19.12 136.498 19.912 137.554 21.496C138.626 23.08 139.162 25.248 139.162 28C139.162 30.784 138.626 32.968 137.554 34.552C136.498 36.136 134.786 36.928 132.418 36.928C130.05 36.928 128.33 36.136 127.258 34.552C126.202 32.968 125.674 30.784 125.674 28ZM135.13 28C135.13 26.384 134.954 25.144 134.602 24.28C134.25 23.4 133.522 22.96 132.418 22.96C131.314 22.96 130.586 23.4 130.234 24.28C129.882 25.144 129.706 26.384 129.706 28C129.706 29.088 129.77 29.992 129.898 30.712C130.026 31.416 130.282 31.992 130.666 32.44C131.066 32.872 131.65 33.088 132.418 33.088C133.186 33.088 133.762 32.872 134.146 32.44C134.546 31.992 134.81 31.416 134.938 30.712C135.066 29.992 135.13 29.088 135.13 28ZM152.514 22.552L146.49 37H142.29L148.386 23.008H140.922V19.504H152.514V22.552ZM157.054 27.592C155.55 26.792 154.798 25.536 154.798 23.824C154.798 22.96 155.022 22.176 155.47 21.472C155.918 20.752 156.598 20.184 157.51 19.768C158.422 19.336 159.542 19.12 160.87 19.12C162.198 19.12 163.31 19.336 164.206 19.768C165.118 20.184 165.798 20.752 166.246 21.472C166.694 22.176 166.918 22.96 166.918 23.824C166.918 24.688 166.71 25.44 166.294 26.08C165.894 26.72 165.35 27.224 164.662 27.592C165.526 28.008 166.19 28.584 166.654 29.32C167.118 30.04 167.35 30.888 167.35 31.864C167.35 33 167.062 33.984 166.486 34.816C165.91 35.632 165.126 36.256 164.134 36.688C163.158 37.12 162.07 37.336 160.87 37.336C159.67 37.336 158.574 37.12 157.582 36.688C156.606 36.256 155.83 35.632 155.254 34.816C154.678 33.984 154.39 33 154.39 31.864C154.39 30.872 154.622 30.016 155.086 29.296C155.55 28.56 156.206 27.992 157.054 27.592ZM162.934 24.448C162.934 23.792 162.742 23.288 162.358 22.936C161.99 22.568 161.494 22.384 160.87 22.384C160.246 22.384 159.742 22.568 159.358 22.936C158.99 23.304 158.806 23.816 158.806 24.472C158.806 25.096 158.998 25.592 159.382 25.96C159.766 26.312 160.262 26.488 160.87 26.488C161.478 26.488 161.974 26.304 162.358 25.936C162.742 25.568 162.934 25.072 162.934 24.448ZM160.87 29.368C160.118 29.368 159.51 29.576 159.046 29.992C158.582 30.392 158.35 30.952 158.35 31.672C158.35 32.344 158.574 32.896 159.022 33.328C159.486 33.76 160.102 33.976 160.87 33.976C161.638 33.976 162.238 33.76 162.67 33.328C163.118 32.896 163.342 32.344 163.342 31.672C163.342 30.968 163.11 30.408 162.646 29.992C162.198 29.576 161.606 29.368 160.87 29.368ZM172.616 27.592C171.112 26.792 170.36 25.536 170.36 23.824C170.36 22.96 170.584 22.176 171.032 21.472C171.48 20.752 172.16 20.184 173.072 19.768C173.984 19.336 175.104 19.12 176.432 19.12C177.76 19.12 178.872 19.336 179.768 19.768C180.68 20.184 181.36 20.752 181.808 21.472C182.256 22.176 182.48 22.96 182.48 23.824C182.48 24.688 182.272 25.44 181.856 26.08C181.456 26.72 180.912 27.224 180.224 27.592C181.088 28.008 181.752 28.584 182.216 29.32C182.68 30.04 182.912 30.888 182.912 31.864C182.912 33 182.624 33.984 182.048 34.816C181.472 35.632 180.688 36.256 179.696 36.688C178.72 37.12 177.632 37.336 176.432 37.336C175.232 37.336 174.136 37.12 173.144 36.688C172.168 36.256 171.392 35.632 170.816 34.816C170.24 33.984 169.952 33 169.952 31.864C169.952 30.872 170.184 30.016 170.648 29.296C171.112 28.56 171.768 27.992 172.616 27.592ZM178.496 24.448C178.496 23.792 178.304 23.288 177.92 22.936C177.552 22.568 177.056 22.384 176.432 22.384C175.808 22.384 175.304 22.568 174.92 22.936C174.552 23.304 174.368 23.816 174.368 24.472C174.368 25.096 174.56 25.592 174.944 25.96C175.328 26.312 175.824 26.488 176.432 26.488C177.04 26.488 177.536 26.304 177.92 25.936C178.304 25.568 178.496 25.072 178.496 24.448ZM176.432 29.368C175.68 29.368 175.072 29.576 174.608 29.992C174.144 30.392 173.912 30.952 173.912 31.672C173.912 32.344 174.136 32.896 174.584 33.328C175.048 33.76 175.664 33.976 176.432 33.976C177.2 33.976 177.8 33.76 178.232 33.328C178.68 32.896 178.904 32.344 178.904 31.672C178.904 30.968 178.672 30.408 178.208 29.992C177.76 29.576 177.168 29.368 176.432 29.368ZM196.483 22.552L190.459 37H186.259L192.355 23.008H184.891V19.504H196.483V22.552Z" fill="white"/>
</svg>
