<svg width="111" height="74" viewBox="0 0 111 74" fill="none" xmlns="http://www.w3.org/2000/svg">
<path d="M32.375 37C42.55 37 50.875 28.675 50.875 18.5C50.875 8.325 42.55 0 32.375 0C22.2 0 13.875 8.325 13.875 18.5C13.875 28.675 22.2 37 32.375 37ZM50.875 74V49.4875C45.7875 47.6375 39.3125 46.25 32.375 46.25C14.3375 46.25 0 54.575 0 64.75V74H50.875ZM101.75 0H69.375C64.2875 0 60.125 4.1625 60.125 9.25V64.75C60.125 69.8375 64.2875 74 69.375 74H101.75C106.838 74 111 69.8375 111 64.75V9.25C111 4.1625 106.838 0 101.75 0ZM83.25 64.75H74V9.25H83.25V64.75Z" fill="#898989"/>
</svg>
