<svg width="114" height="77" viewBox="0 0 114 77" fill="none" xmlns="http://www.w3.org/2000/svg">
<path d="M33.25 38.5C43.7 38.5 52.25 29.8375 52.25 19.25C52.25 8.6625 43.7 0 33.25 0C22.8 0 14.25 8.6625 14.25 19.25C14.25 29.8375 22.8 38.5 33.25 38.5ZM37.2223 77C45.5219 77 52.25 70.2719 52.25 61.9723C52.25 55.6763 48.3401 49.8664 42.1261 48.8532C39.3065 48.3935 36.3224 48.125 33.25 48.125C14.725 48.125 0 56.7875 0 67.375C0 72.6907 4.30926 77 9.625 77H37.2223ZM104.5 0H71.25C66.025 0 61.75 4.33125 61.75 9.625V67.375C61.75 72.6687 66.025 77 71.25 77H104.5C109.725 77 114 72.6687 114 67.375V9.625C114 4.33125 109.725 0 104.5 0ZM85.5 62.625C85.5 65.2484 83.3734 67.375 80.75 67.375C78.1266 67.375 76 65.2484 76 62.625V14.375C76 11.7516 78.1266 9.625 80.75 9.625C83.3734 9.625 85.5 11.7516 85.5 14.375V62.625Z" fill="white"/>
</svg>
