<svg width="20" height="19" viewBox="0 0 20 19" fill="none" xmlns="http://www.w3.org/2000/svg">
<path d="M12.2529 17.3851L12.262 17.3915C13.049 17.8926 13.9835 18.1102 14.911 18.0084C15.8384 17.9065 16.7034 17.4913 17.3629 16.8313L17.9359 16.2584C18.0628 16.1315 18.1635 15.9808 18.2323 15.815C18.301 15.6492 18.3364 15.4714 18.3364 15.2919C18.3364 15.1124 18.301 14.9347 18.2323 14.7688C18.1635 14.603 18.0628 14.4524 17.9359 14.3255L15.5193 11.9107C15.3924 11.7838 15.2417 11.683 15.0759 11.6143C14.9101 11.5456 14.7324 11.5102 14.5529 11.5102C14.3734 11.5102 14.1956 11.5456 14.0298 11.6143C13.864 11.683 13.7133 11.7838 13.5864 11.9107C13.3302 12.1669 12.9827 12.3108 12.6204 12.3108C12.2581 12.3108 11.9107 12.1669 11.6544 11.9107L7.79048 8.04586C7.53433 7.78963 7.39044 7.44217 7.39044 7.07987C7.39044 6.71757 7.53433 6.3701 7.79048 6.11388C7.91745 5.987 8.01817 5.83633 8.08689 5.67051C8.1556 5.50468 8.19097 5.32694 8.19097 5.14744C8.19097 4.96794 8.1556 4.79019 8.08689 4.62437C8.01817 4.45854 7.91745 4.30788 7.79048 4.18099L5.37482 1.76625C5.1186 1.51011 4.77114 1.36621 4.40884 1.36621C4.04654 1.36621 3.69907 1.51011 3.44285 1.76625L2.86899 2.33919C2.20914 2.99883 1.79408 3.86385 1.69239 4.79131C1.5907 5.71878 1.80847 6.65318 2.30971 7.44012L2.31518 7.44923C4.96236 11.3658 8.3358 14.7386 12.2529 17.3851V17.3851Z" stroke="white" stroke-width="1.4" stroke-linecap="round" stroke-linejoin="round"/>
</svg>
