<svg width="27" height="29" viewBox="0 0 27 29" fill="none" xmlns="http://www.w3.org/2000/svg">
<path fill-rule="evenodd" clip-rule="evenodd" d="M13.4493 2.9C11.5674 2.89963 9.71835 3.4314 8.08667 4.44226C6.455 5.45311 5.09778 6.90768 4.15048 8.66078C3.20318 10.4139 2.69893 12.4042 2.68807 14.433C2.67721 16.4619 3.16012 18.4584 4.08859 20.2231C4.71615 19.3438 5.52286 18.6319 6.44636 18.1424C7.36986 17.6528 8.38541 17.3988 9.4145 17.4H17.4841C18.5131 17.3988 19.5287 17.6528 20.4522 18.1424C21.3757 18.6319 22.1824 19.3438 22.81 20.2231C23.7384 18.4584 24.2213 16.4619 24.2105 14.433C24.1996 12.4042 23.6954 10.4139 22.7481 8.66078C21.8008 6.90768 20.4436 5.45311 18.8119 4.44226C17.1802 3.4314 15.3312 2.89963 13.4493 2.9ZM24.132 23.3102C25.9302 20.7828 26.9029 17.6853 26.8985 14.5C26.8985 6.49164 20.8773 0 13.4493 0C6.02125 0 1.51348e-05 6.49164 1.51348e-05 14.5C-0.00442505 17.6853 0.968235 20.7828 2.76653 23.3102L2.7598 23.3363L3.23725 23.9351C4.49864 25.5251 6.0648 26.8012 7.8278 27.6756C9.59079 28.55 11.5087 29.0018 13.4493 29C16.1759 29.0054 18.8389 28.1124 21.0817 26.4407C22.0379 25.7285 22.9049 24.8864 23.6613 23.9351L24.1387 23.3363L24.132 23.3102ZM13.4493 5.79999C12.3792 5.79999 11.3529 6.2583 10.5963 7.07408C9.83959 7.88986 9.4145 8.9963 9.4145 10.15C9.4145 11.3037 9.83959 12.4101 10.5963 13.2259C11.3529 14.0417 12.3792 14.5 13.4493 14.5C14.5194 14.5 15.5456 14.0417 16.3023 13.2259C17.059 12.4101 17.4841 11.3037 17.4841 10.15C17.4841 8.9963 17.059 7.88986 16.3023 7.07408C15.5456 6.2583 14.5194 5.79999 13.4493 5.79999Z" fill="white"/>
</svg>
