<svg width="38" height="39" viewBox="0 0 38 39" fill="none" xmlns="http://www.w3.org/2000/svg">
<path fill-rule="evenodd" clip-rule="evenodd" d="M19 0C8.5063 0 0 8.73015 0 19.5C0 30.2698 8.5063 39 19 39C29.4937 39 38 30.2698 38 19.5C38 8.73015 29.4937 0 19 0ZM11.4 11.7C11.4 11.1828 11.6002 10.6868 11.9565 10.3211C12.3128 9.95545 12.7961 9.75 13.3 9.75H24.7C25.2039 9.75 25.6872 9.95545 26.0435 10.3211C26.3998 10.6868 26.6 11.1828 26.6 11.7C26.6 12.2172 26.3998 12.7132 26.0435 13.0789C25.6872 13.4446 25.2039 13.65 24.7 13.65H21.7835C22.1236 14.2545 22.3877 14.9078 22.5606 15.6H24.7C25.2039 15.6 25.6872 15.8054 26.0435 16.1711C26.3998 16.5368 26.6 17.0328 26.6 17.55C26.6 18.0672 26.3998 18.5632 26.0435 18.9289C25.6872 19.2946 25.2039 19.5 24.7 19.5H22.5606C22.2688 20.656 21.7229 21.7281 20.9647 22.634C20.2065 23.5399 19.2563 24.2555 18.1868 24.726L22.04 27.69C22.4431 28.0003 22.7096 28.4623 22.7809 28.9742C22.8522 29.4862 22.7223 30.0063 22.42 30.42C22.1177 30.8337 21.6675 31.1073 21.1687 31.1804C20.6699 31.2535 20.1631 31.1203 19.76 30.81L12.1752 24.9717C11.9333 24.7921 11.7367 24.5557 11.6019 24.2823C11.4671 24.0089 11.3978 23.7064 11.4 23.4C11.4 22.8989 11.5957 22.4172 11.913 22.0682C12.0896 21.8718 12.3041 21.7153 12.543 21.6089C12.7818 21.5025 13.0396 21.4483 13.3 21.45H15.2C15.867 21.45 16.5223 21.2698 17.0999 20.9275C17.6776 20.5852 18.1573 20.0929 18.4908 19.5H13.3C12.7961 19.5 12.3128 19.2946 11.9565 18.9289C11.6002 18.5632 11.4 18.0672 11.4 17.55C11.4 17.0328 11.6002 16.5368 11.9565 16.1711C12.3128 15.8054 12.7961 15.6 13.3 15.6H18.4908C18.1573 15.0071 17.6776 14.5148 17.0999 14.1725C16.5223 13.8302 15.867 13.65 15.2 13.65H13.3C12.7961 13.65 12.3128 13.4446 11.9565 13.0789C11.6002 12.7132 11.4 12.2172 11.4 11.7Z" fill="white"/>
</svg>
