<svg width="78" height="74" viewBox="0 0 78 74" fill="none" xmlns="http://www.w3.org/2000/svg">
<path d="M69.7895 8.22222H4.10526V0H69.7895V8.22222ZM41.0526 47.2778C41.0526 51.9644 42.8179 56.98 45.1579 61.6667V65.7778H4.10526V41.1111H0V32.8889L4.10526 12.3333H69.7895L72.6632 26.7222C69.7895 25.4067 66.8337 24.6667 63.6316 24.6667C51.3158 24.6667 41.0526 34.9444 41.0526 47.2778ZM36.9474 41.1111H12.3158V57.5556H36.9474V41.1111ZM78 47.2778C78 57.9667 63.6316 74 63.6316 74C63.6316 74 49.2632 57.9667 49.2632 47.2778C49.2632 39.4667 55.8316 32.8889 63.6316 32.8889C71.4316 32.8889 78 39.4667 78 47.2778ZM68.5579 47.6889C68.5579 45.2222 66.0947 42.7556 63.6316 42.7556C61.1684 42.7556 58.7053 44.8111 58.7053 47.6889C58.7053 50.1556 60.7579 52.6222 63.6316 52.6222C66.5053 52.6222 68.9684 50.1556 68.5579 47.6889Z" fill="#898989"/>
</svg>
