<svg width="36" height="32" viewBox="0 0 36 32" fill="none" xmlns="http://www.w3.org/2000/svg">
<path d="M18.6883 0.704369C18.2476 1.15551 18 1.76731 18 2.40523C18 3.04315 18.2476 3.65495 18.6883 4.10609L30.3254 16.0145L18.6883 27.923C18.2601 28.3767 18.0231 28.9844 18.0285 29.6152C18.0338 30.2459 18.2811 30.8493 18.717 31.2954C19.1528 31.7414 19.7425 31.9944 20.3589 31.9999C20.9753 32.0054 21.5691 31.7629 22.0125 31.3247L35.3117 17.7154C35.7524 17.2642 36 16.6524 36 16.0145C36 15.3766 35.7524 14.7648 35.3117 14.3137L22.0125 0.704369C21.5717 0.253361 20.9738 -6.56816e-07 20.3504 -6.84065e-07C19.727 -7.11314e-07 19.1292 0.253361 18.6883 0.704369Z" fill="#00A1BA"/>
<path d="M0.68832 0.704369C0.247591 1.15551 1.8301e-06 1.76731 1.80221e-06 2.40523C1.77433e-06 3.04315 0.247591 3.65495 0.68832 4.10609L12.3254 16.0145L0.688319 27.923C0.260081 28.3767 0.0231215 28.9844 0.0284773 29.6152C0.0338331 30.2459 0.281077 30.8493 0.716958 31.2954C1.15284 31.7414 1.74248 31.9944 2.35888 31.9999C2.97529 32.0054 3.56913 31.7629 4.01252 31.3247L17.3117 17.7154C17.7524 17.2642 18 16.6524 18 16.0145C18 15.3766 17.7524 14.7648 17.3117 14.3137L4.01252 0.704369C3.57166 0.253361 2.9738 -6.56816e-07 2.35042 -6.84065e-07C1.72704 -7.11314e-07 1.12918 0.253361 0.68832 0.704369Z" fill="#00A1BA"/>
</svg>
