<svg width="72" height="98" viewBox="0 0 72 98" fill="none" xmlns="http://www.w3.org/2000/svg">
<path d="M53.7308 93.5272C50.9275 93.5272 48.2826 94.9221 46.7179 97.248C47.3971 97.6974 48.1866 97.9555 49.0021 97.9947C49.8176 98.034 50.6286 97.853 51.3485 97.4711C52.0684 97.0891 52.6702 96.5205 53.0898 95.8259C53.5093 95.1314 53.7309 94.3369 53.7308 93.5272ZM33.1884 80.8623C34.3839 82.6394 36.9988 82.6394 38.1943 80.8623C37.4532 80.3719 36.5823 80.1103 35.6914 80.1103C34.8004 80.1103 33.9295 80.3719 33.1884 80.8623ZM24.6648 97.248C23.1001 94.9221 20.4552 93.5272 17.652 93.5272C17.6518 94.3369 17.8734 95.1314 18.2929 95.8259C18.7125 96.5205 19.3143 97.0891 20.0342 97.4711C20.7541 97.853 21.5651 98.034 22.3806 97.9947C23.1961 97.9555 23.9856 97.6974 24.6648 97.248ZM46.7179 97.248C49.4761 93.1479 48.3645 87.5856 44.2423 84.8605L38.1943 80.8623C35.4362 84.9624 36.5478 90.5247 40.67 93.2498L46.7179 97.248ZM33.1884 80.8623L27.1404 84.8605C23.0182 87.5856 21.9066 93.1479 24.6648 97.248L30.7127 93.2498C34.8349 90.5247 35.9466 84.9624 33.1884 80.8623ZM39.1279 10.5162L39.3173 10.7398L46.1858 4.94393L45.9964 4.72032L39.1279 10.5162ZM50.7046 15.4176L50.9978 15.3952L50.2762 6.47786L49.9831 6.50022L50.7046 15.4176ZM55.8549 20.2117L55.8323 20.5024L64.825 21.2179L64.8475 20.9272L55.8549 20.2117ZM60.5496 31.7944L60.7751 31.9822L66.6199 25.1712L66.3944 24.9834L60.5496 31.7944ZM60.7751 38.7977L60.5496 38.9855L66.3944 45.7965L66.6199 45.6087L60.7751 38.7977ZM55.8323 50.2776L55.8549 50.5683L64.8475 49.8527L64.825 49.562L55.8323 50.2776ZM50.9978 55.3847L50.7046 55.3624L49.9831 64.2797L50.2762 64.3021L50.9978 55.3847ZM39.3173 60.0402L39.1279 60.2638L45.9964 66.0596L46.1858 65.836L39.3173 60.0402ZM32.0309 60.4528C32.1545 60.3484 32.17 60.1636 32.0654 60.0402L25.1969 65.836L25.3864 66.0596L32.0309 60.4528ZM20.6781 55.3624L20.3849 55.3847L21.1065 64.3021C21.2682 64.2897 21.389 64.1483 21.3759 63.9867L20.6781 55.3624ZM15.5278 50.5683L15.5504 50.2776L6.55774 49.562L6.53519 49.8527L15.5278 50.5683ZM10.8331 38.9855L10.6076 38.7977L4.76282 45.6087L4.98831 45.7965L10.8331 38.9855ZM10.6076 31.9822L10.8331 31.7944L4.98831 24.9834L4.76282 25.1712L10.6076 31.9822ZM15.5504 20.5024L15.5278 20.2117L6.53519 20.9272L6.55774 21.2179L15.5504 20.5024ZM20.3849 15.3952L20.6736 15.4176L21.3997 6.50022L21.1065 6.47786L20.3849 15.3952ZM32.0654 10.7398L32.2549 10.5162L25.3864 4.72032L25.1969 4.94393L32.0654 10.7398ZM20.6736 15.4176C22.8096 15.5878 24.9604 15.2525 26.9402 14.4393C28.9199 13.626 30.6766 12.358 32.0654 10.7398L25.1969 4.94393C24.7335 5.48302 24.1476 5.90524 23.4874 6.17581C22.8272 6.44639 22.1117 6.55757 21.3997 6.50022L20.6736 15.4176ZM15.5278 20.2117C15.4754 19.566 15.5651 18.9167 15.7907 18.3087C16.0162 17.7008 16.3723 17.1487 16.8342 16.6907C17.2961 16.2326 17.8529 15.8795 18.466 15.6559C19.079 15.4322 19.7338 15.3433 20.3849 15.3952L21.1065 6.47786C19.1534 6.32264 17.1896 6.58993 15.351 7.26125C13.5123 7.93258 11.8426 8.9919 10.4574 10.366C9.0721 11.7401 8.00435 13.3961 7.32793 15.2196C6.65151 17.0431 6.37806 18.9905 6.53519 20.9272L15.5278 20.2117ZM10.8331 31.7944C12.465 30.4172 13.7437 28.6752 14.5638 26.712C15.3839 24.7488 15.7221 22.6205 15.5504 20.5024L6.55774 21.2179C6.61558 21.9239 6.50345 22.6335 6.2306 23.2882C5.95774 23.9428 5.53196 24.5239 4.98831 24.9834L10.8331 31.7944ZM10.6076 38.7977C10.1094 38.3779 9.70923 37.8557 9.43479 37.2672C9.16035 36.6788 9.01821 36.0383 9.01821 35.39C9.01821 34.7417 9.16035 34.1011 9.43479 33.5127C9.70923 32.9243 10.1094 32.4021 10.6076 31.9822L4.76282 25.1712C3.26983 26.4307 2.07066 27.9969 1.24829 29.7613C0.425924 31.5257 0 33.4462 0 35.39C0 37.3337 0.425924 39.2543 1.24829 41.0187C2.07066 42.7831 3.26983 44.3492 4.76282 45.6087L10.6076 38.7977ZM15.5504 50.2776C15.7221 48.1594 15.3839 46.0311 14.5638 44.0679C13.7437 42.1047 12.465 40.3628 10.8331 38.9855L4.98831 45.7965C5.53196 46.2561 5.95774 46.8371 6.2306 47.4918C6.50345 48.1464 6.61558 48.856 6.55774 49.562L15.5504 50.2776ZM20.3849 55.3847C19.7338 55.4367 19.079 55.3478 18.466 55.1241C17.8529 54.9004 17.2961 54.5473 16.8342 54.0893C16.3723 53.6312 16.0162 53.0791 15.7907 52.4712C15.5651 51.8632 15.4754 51.214 15.5278 50.5683L6.53519 49.8527C6.37866 51.7895 6.64821 53.7368 7.3252 55.5601C8.00219 57.3834 9.07046 59.0391 10.4561 60.4127C11.8418 61.7864 13.5118 62.8452 15.3507 63.516C18.3867 64.6234 20.8949 61.6844 20.6342 58.4633L20.3849 55.3847ZM39.1279 60.2638C39.1279 60.2622 39.1259 60.2615 39.1249 60.2627C38.7021 60.7551 38.1765 61.1508 37.5845 61.4223C36.9911 61.6944 36.3451 61.8354 35.6914 61.8354C35.0376 61.8354 34.3916 61.6944 33.7982 61.4223C32.8184 60.9729 31.5904 60.8204 30.7669 61.5159L25.3864 66.0596C26.6565 67.5401 28.2358 68.7292 30.0151 69.5447C31.7945 70.3602 33.7312 70.7826 35.6914 70.7826C37.6515 70.7826 39.5883 70.3602 41.3676 69.5447C43.1469 68.7292 44.7262 67.5401 45.9964 66.0596L39.1279 60.2638ZM55.8549 50.5683C55.9074 51.2144 55.8221 51.8641 55.5963 52.4724C55.3705 53.0806 55.014 53.633 54.5516 54.0911C54.0892 54.5492 53.5318 54.9022 52.9182 55.1256C52.3046 55.3489 51.6493 55.4374 50.9978 55.3847L50.2762 64.3021C52.2293 64.4573 54.1931 64.19 56.0317 63.5187C57.8704 62.8474 59.5401 61.788 60.9254 60.4139C62.3106 59.0399 63.3784 57.3838 64.0548 55.5603C64.7312 53.7368 65.0047 51.7894 64.8475 49.8527L55.8549 50.5683ZM60.5496 38.9855C58.9177 40.3628 57.639 42.1047 56.8189 44.0679C55.9988 46.0311 55.6606 48.1594 55.8323 50.2776L64.825 49.562C64.7671 48.856 64.8793 48.1464 65.1521 47.4918C65.425 46.8371 65.8508 46.2561 66.3944 45.7965L60.5496 38.9855ZM60.7751 31.9822C61.2733 32.4021 61.6735 32.9243 61.9479 33.5127C62.2224 34.1011 62.3645 34.7417 62.3645 35.39C62.3645 36.0383 62.2224 36.6788 61.9479 37.2672C61.6735 37.8557 61.2733 38.3779 60.7751 38.7977L66.6199 45.6087C68.1129 44.3492 69.3121 42.7831 70.1344 41.0187C70.9568 39.2543 71.3827 37.3337 71.3827 35.39C71.3827 33.4462 70.9568 31.5257 70.1344 29.7613C69.3121 27.9969 68.1129 26.4307 66.6199 25.1712L60.7751 31.9822ZM55.8323 20.5024C55.6606 22.6205 55.9988 24.7488 56.8189 26.712C57.639 28.6752 58.9177 30.4172 60.5496 31.7944L66.3944 24.9834C65.8508 24.5239 65.425 23.9428 65.1521 23.2882C64.8793 22.6335 64.7671 21.9239 64.825 21.2179L55.8323 20.5024ZM50.9978 15.3952C51.6489 15.3433 52.3037 15.4322 52.9168 15.6559C53.5298 15.8795 54.0866 16.2326 54.5485 16.6907C55.0104 17.1487 55.3665 17.7008 55.5921 18.3087C55.8176 18.9167 55.9073 19.566 55.8549 20.2117L64.8475 20.9272C65.0041 18.9905 64.7345 17.0431 64.0575 15.2198C63.3805 13.3966 62.3123 11.7408 60.9266 10.3672C59.5409 8.99353 57.8709 7.93472 56.032 7.26396C54.1931 6.5932 52.2292 6.32204 50.2762 6.47786L50.9978 15.3952ZM39.3173 10.7398C40.7061 12.358 42.4628 13.626 44.4426 14.4393C46.4223 15.2525 48.5686 15.5878 50.7046 15.4176L49.9831 6.50022C49.2711 6.55757 48.5555 6.44639 47.8953 6.17581C47.2351 5.90524 46.6492 5.48302 46.1858 4.94393L39.3173 10.7398ZM45.9964 4.72032C44.7262 3.2406 43.1426 2.05213 41.3637 1.23712C39.5849 0.422105 37.6487 0 35.6891 0C33.7295 0 31.7933 0.422105 30.0145 1.23712C28.2356 2.05213 26.6565 3.2406 25.3864 4.72032L32.2549 10.5162C32.6782 10.0222 33.2048 9.62533 33.7982 9.35319C34.3916 9.08105 35.0376 8.94009 35.6914 8.94009C36.3451 8.94009 36.9911 9.08105 37.5845 9.35319C38.1779 9.62533 38.7045 10.0222 39.1279 10.5162L45.9964 4.72032ZM32.0654 60.0402C30.8608 58.6362 29.3773 57.4934 27.7075 56.6832C26.0377 55.873 24.2174 55.4127 22.3602 55.331L22.0455 62.4176C22.0001 63.4386 22.8256 64.271 23.745 64.7173C24.3013 64.9874 24.7956 65.3682 25.1969 65.836L32.0654 60.0402ZM22.3229 56.1768C22.3435 55.7124 21.9831 55.3167 21.5183 55.3253C21.0538 55.334 20.7085 55.7424 20.7459 56.2055L21.3768 64.0014C21.3894 64.1573 21.5265 64.2724 21.6829 64.2687C21.8381 64.2651 21.9689 64.1456 21.9758 63.9905L22.3229 56.1768ZM17.652 93.5272C22.6334 93.5272 26.6717 89.489 26.6717 84.5075V64.3085C26.6717 61.8178 24.6525 59.7987 22.1618 59.7987C19.6711 59.7987 17.652 61.8178 17.652 64.3085V93.5272ZM50.7046 55.3624C50.1436 55.3173 49.5848 55.3068 49.0225 55.331L49.3943 63.7026C49.4081 64.0145 49.672 64.253 49.9831 64.2797L50.7046 55.3624ZM49.0225 55.331C47.1653 55.4127 45.345 55.873 43.6752 56.6832C42.0054 57.4934 40.5219 58.6362 39.3173 60.0402L46.1858 65.836C46.5876 65.369 47.082 64.989 47.6383 64.7197C48.5574 64.2748 49.3826 63.4433 49.3373 62.4231L49.0225 55.331ZM49.2187 59.8009C46.7288 59.8021 44.7111 61.8209 44.7111 64.3108V84.5075C44.7111 89.489 48.7493 93.5272 53.7308 93.5272V64.3108C53.7308 61.8192 51.7103 59.7997 49.2187 59.8009Z" fill="white"/>
<path d="M44.7653 27.2227L35.6913 36.0951C33.1692 38.5611 29.1392 38.5611 26.6172 36.0951V36.0951" stroke="white" stroke-width="10" stroke-linecap="round" stroke-linejoin="round"/>
</svg>
