<svg width="44" height="32" viewBox="0 0 44 32" fill="none" xmlns="http://www.w3.org/2000/svg">
<path d="M23.8115 0.921608C23.6097 0.637379 23.3396 0.404984 23.0245 0.244436C22.7095 0.0838891 22.3589 3.83012e-06 22.003 3.79901e-06C21.6471 3.76789e-06 21.2965 0.0838889 20.9814 0.244436C20.6664 0.404983 20.3963 0.637379 20.1944 0.921608L0.392887 28.653C0.163681 28.9729 0.0292742 29.3475 0.00426121 29.7362C-0.0207518 30.125 0.0645868 30.5129 0.251007 30.8579C0.437428 31.2029 0.7178 31.4918 1.06166 31.6931C1.40552 31.8945 1.79972 32.0006 2.20143 32L41.8045 32C42.2053 31.9984 42.5981 31.8909 42.9405 31.6891C43.283 31.4872 43.5622 31.1987 43.7482 30.8545C43.9342 30.5103 44.0199 30.1234 43.9961 29.7356C43.9723 29.3477 43.8399 28.9734 43.6131 28.653L23.8115 0.921608Z" fill="white"/>
</svg>
