<svg width="29" height="29" viewBox="0 0 29 29" fill="none" xmlns="http://www.w3.org/2000/svg">
<path fill-rule="evenodd" clip-rule="evenodd" d="M3.22278 12.8977C3.22278 11.6274 3.47301 10.3695 3.95916 9.19589C4.44532 8.02228 5.1579 6.9559 6.0562 6.05766C6.9545 5.15941 8.02094 4.44688 9.19463 3.96076C10.3683 3.47463 11.6263 3.22442 12.8967 3.22442C14.1671 3.22442 15.425 3.47463 16.5987 3.96076C17.7724 4.44688 18.8388 5.15941 19.7371 6.05766C20.6354 6.9559 21.348 8.02228 21.8342 9.19589C22.3203 10.3695 22.5706 11.6274 22.5706 12.8977C22.5706 15.4632 21.5513 17.9236 19.7371 19.7377C17.9229 21.5518 15.4623 22.571 12.8967 22.571C10.331 22.571 7.8704 21.5518 6.0562 19.7377C4.24199 17.9236 3.22278 15.4632 3.22278 12.8977ZM12.8967 7.96695e-08C10.844 0.000293948 8.82098 0.490464 6.99583 1.42977C5.17068 2.36908 3.59608 3.7304 2.4029 5.40059C1.20971 7.07079 0.432406 9.00162 0.135573 11.0326C-0.161259 13.0636 0.0309578 15.1361 0.696248 17.0779C1.36154 19.0197 2.48069 20.7746 3.96069 22.1969C5.44069 23.6192 7.23879 24.6678 9.20556 25.2555C11.1723 25.8431 13.251 25.9529 15.2687 25.5758C17.2865 25.1986 19.185 24.3453 20.8067 23.0869L26.2676 28.5474C26.5717 28.8411 26.979 29.0036 27.4017 28.9999C27.8244 28.9963 28.2288 28.8267 28.5278 28.5278C28.8267 28.2289 28.9963 27.8245 28.9999 27.4018C29.0036 26.9791 28.8411 26.5718 28.5474 26.2678L23.0865 20.8072C24.5668 18.9007 25.4823 16.6171 25.729 14.2161C25.9758 11.8151 25.5438 9.39305 24.4822 7.22536C23.4207 5.05767 21.7721 3.23134 19.724 1.95404C17.6759 0.67674 15.3105 -0.000268144 12.8967 7.96695e-08ZM12.8967 19.3465C14.6071 19.3465 16.2475 18.6671 17.457 17.4577C18.6665 16.2483 19.3459 14.608 19.3459 12.8977C19.3459 11.1874 18.6665 9.54706 17.457 8.33767C16.2475 7.12828 14.6071 6.44885 12.8967 6.44885C11.1862 6.44885 9.54583 7.12828 8.33636 8.33767C7.12689 9.54706 6.44741 11.1874 6.44741 12.8977C6.44741 14.608 7.12689 16.2483 8.33636 17.4577C9.54583 18.6671 11.1862 19.3465 12.8967 19.3465Z" fill="white"/>
</svg>
