<svg width="111" height="83" viewBox="0 0 111 83" fill="none" xmlns="http://www.w3.org/2000/svg">
<path d="M-6.04674e-07 69.1667L-2.29304e-06 30.5414C-2.45365e-06 26.8669 1.45254 23.3438 4.0541 20.75L20.8125 4.04194C23.4141 1.44819 26.9478 6.45147e-06 30.6334 6.29037e-06L97.125 3.38393e-06C104.778 3.04941e-06 111 6.20339 111 13.8333L111 69.1667C111 76.7966 104.778 83 97.125 83L13.875 83C6.22207 83 -2.71159e-07 76.7966 -6.04674e-07 69.1667ZM41.625 62.25C41.625 66.0758 44.7252 69.1667 48.5625 69.1667L55.5 69.1667L55.5 55.3333L41.625 55.3333L41.625 62.25ZM76.3125 69.1667L76.3125 13.8333L62.4375 13.8333L62.4375 69.1667L76.3125 69.1667ZM48.5625 13.8333C44.7252 13.8333 41.625 16.9242 41.625 20.75L41.625 27.6667L55.5 27.6667L55.5 13.8333L48.5625 13.8333ZM41.625 48.4167L55.5 48.4167L55.5 34.5833L41.625 34.5833L41.625 48.4167ZM97.125 20.75C97.125 16.9242 94.0248 13.8333 90.1875 13.8333L83.25 13.8333L83.25 27.6667L97.125 27.6667L97.125 20.75ZM83.25 48.4167L97.125 48.4167L97.125 34.5833L83.25 34.5833L83.25 48.4167ZM90.1875 69.1667C94.0248 69.1667 97.125 66.0758 97.125 62.25L97.125 55.3333L83.25 55.3333L83.25 69.1667L90.1875 69.1667Z" fill="#00A1BA"/>
</svg>
