<svg width="80" height="59" viewBox="0 0 80 59" fill="none" xmlns="http://www.w3.org/2000/svg">
<path d="M-4.29829e-07 49.1667L-1.62999e-06 21.7102C-1.74416e-06 19.0982 1.04687 16.5937 2.92187 14.75L15 2.87318C16.875 1.02943 19.4219 -8.48957e-07 22.0781 -9.65065e-07L70 -3.0598e-06C75.5156 -3.30089e-06 80 4.40963 80 9.83333L80 49.1667C80 54.5904 75.5156 59 70 59L10 59C4.48438 59 -1.92751e-07 54.5904 -4.29829e-07 49.1667ZM30 44.25C30 46.9695 32.2344 49.1667 35 49.1667L40 49.1667L40 39.3333L30 39.3333L30 44.25ZM55 49.1667L55 9.83333L45 9.83333L45 49.1667L55 49.1667ZM35 9.83333C32.2344 9.83333 30 12.0305 30 14.75L30 19.6667L40 19.6667L40 9.83333L35 9.83333ZM30 34.4167L40 34.4167L40 24.5833L30 24.5833L30 34.4167ZM70 14.75C70 12.0305 67.7656 9.83333 65 9.83333L60 9.83333L60 19.6667L70 19.6667L70 14.75ZM60 34.4167L70 34.4167L70 24.5833L60 24.5833L60 34.4167ZM65 49.1667C67.7656 49.1667 70 46.9695 70 44.25L70 39.3333L60 39.3333L60 49.1667L65 49.1667Z" fill="#FFA800"/>
</svg>
