<svg width="28" height="26" viewBox="0 0 28 26" fill="none" xmlns="http://www.w3.org/2000/svg">
<path d="M13.9993 21.7818L7.21295 25.7565C6.91315 25.942 6.59973 26.0215 6.27267 25.995C5.94562 25.9685 5.65945 25.8625 5.41416 25.6771C5.16887 25.4916 4.97809 25.2594 4.84182 24.9807C4.70554 24.7019 4.67829 24.3908 4.76005 24.0474L6.55885 16.5351L0.549246 11.4871C0.276702 11.2486 0.106634 10.9767 0.0390433 10.6715C-0.0285477 10.3662 -0.00837953 10.0684 0.099548 9.77795C0.208566 9.48647 0.372092 9.24798 0.590127 9.06249C0.808163 8.877 1.10796 8.75776 1.48952 8.70476L9.42056 8.02905L12.4867 0.953947C12.623 0.635965 12.8344 0.397478 13.1212 0.238487C13.4079 0.0794957 13.7006 0 13.9993 0C14.2991 0 14.5918 0.0794957 14.8774 0.238487C15.1631 0.397478 15.3746 0.635965 15.5119 0.953947L18.578 8.02905L26.5091 8.70476C26.8906 8.75776 27.1904 8.877 27.4085 9.06249C27.6265 9.24798 27.79 9.48647 27.8991 9.77795C28.0081 10.0694 28.0288 10.3678 27.9612 10.6731C27.8936 10.9783 27.723 11.2497 27.4494 11.4871L21.4398 16.5351L23.2386 24.0474C23.3203 24.3919 23.2931 24.7035 23.1568 24.9823C23.0205 25.261 22.8297 25.4926 22.5844 25.6771C22.3392 25.8625 22.053 25.9685 21.7259 25.995C21.3989 26.0215 21.0855 25.942 20.7857 25.7565L13.9993 21.7818Z" fill="#FBAF02"/>
</svg>
