<svg width="13" height="7" viewBox="0 0 13 7" fill="none" xmlns="http://www.w3.org/2000/svg">
<path d="M12.7138 0.267679C12.5306 0.0962835 12.282 -8.90907e-07 12.0229 -8.68251e-07C11.7637 -8.45595e-07 11.5152 0.0962836 11.3319 0.267679L6.4941 4.7932L1.6563 0.26768C1.47197 0.101142 1.22509 0.00899132 0.968841 0.0110742C0.712587 0.013157 0.467459 0.109307 0.286254 0.278816C0.105049 0.448325 0.00226442 0.67763 3.76152e-05 0.917343C-0.00218919 1.15706 0.0963206 1.388 0.27435 1.56042L5.80313 6.73232C5.9864 6.90372 6.23495 7 6.4941 7C6.75325 7 7.0018 6.90372 7.18507 6.73232L12.7138 1.56042C12.8971 1.38898 13 1.15648 13 0.914051C13 0.671626 12.8971 0.439125 12.7138 0.267679Z" fill="white"/>
</svg>
