<svg width="256" height="256" viewBox="0 0 256 256" fill="none" xmlns="http://www.w3.org/2000/svg">
<circle cx="128" cy="128" r="126" stroke="#00A1BA" stroke-width="4"/>
<circle cx="128" cy="128" r="105" fill="#00A1BA"/>
<path d="M110.715 146.407C110.715 150.655 111.398 154.171 112.766 156.954C115.305 162.081 119.919 164.645 126.608 164.645C130.71 164.645 134.274 163.253 137.302 160.47C140.378 157.638 141.916 153.585 141.916 148.312C141.916 141.329 139.084 136.666 133.42 134.322C130.197 133.004 125.119 132.345 118.186 132.345V117.403C124.973 117.306 129.709 116.646 132.395 115.426C137.033 113.375 139.353 109.225 139.353 102.975C139.353 98.9219 138.156 95.626 135.764 93.0869C133.42 90.5479 130.1 89.2783 125.803 89.2783C120.871 89.2783 117.233 90.8408 114.89 93.9658C112.595 97.0908 111.496 101.266 111.594 106.49H92.1113C92.3066 101.217 93.21 96.2119 94.8213 91.4756C96.5303 87.3252 99.2158 83.4922 102.878 79.9766C105.612 77.4863 108.859 75.582 112.619 74.2637C116.379 72.9453 120.993 72.2861 126.462 72.2861C136.618 72.2861 144.797 74.9229 150.998 80.1963C157.248 85.4209 160.373 92.4521 160.373 101.29C160.373 107.54 158.518 112.813 154.807 117.11C152.463 119.796 150.021 121.627 147.482 122.604C149.387 122.604 152.121 124.239 155.686 127.511C161.008 132.442 163.669 139.181 163.669 147.726C163.669 156.71 160.544 164.62 154.294 171.456C148.093 178.243 138.889 181.637 126.682 181.637C111.643 181.637 101.193 176.729 95.334 166.915C92.2578 161.69 90.5488 154.854 90.207 146.407H110.715Z" fill="white"/>
</svg>
