<svg width="256" height="256" viewBox="0 0 256 256" fill="none" xmlns="http://www.w3.org/2000/svg">
<circle cx="128" cy="128" r="126" stroke="#00A1BA" stroke-width="4"/>
<circle cx="128" cy="128" r="105" fill="#00A1BA"/>
<path d="M90.9395 179C91.1348 171.383 92.7705 164.425 95.8467 158.126C98.8252 151.046 105.856 143.551 116.94 135.641C126.56 128.756 132.785 123.824 135.617 120.846C139.963 116.207 142.136 111.129 142.136 105.611C142.136 101.119 140.891 97.3838 138.4 94.4053C135.91 91.4268 132.346 89.9375 127.707 89.9375C121.359 89.9375 117.038 92.3057 114.743 97.042C113.425 99.7764 112.644 104.122 112.399 110.079H92.1113C92.4531 101.046 94.0889 93.7461 97.0186 88.1797C102.585 77.584 112.473 72.2861 126.682 72.2861C137.912 72.2861 146.848 75.4111 153.488 81.6611C160.129 87.8623 163.449 96.0898 163.449 106.344C163.449 114.205 161.105 121.188 156.418 127.291C153.342 131.344 148.288 135.86 141.257 140.841L132.907 146.773C127.683 150.484 124.094 153.17 122.141 154.83C120.236 156.49 118.625 158.419 117.307 160.616H163.669V179H90.9395Z" fill="white"/>
</svg>
