<svg width="18" height="20" viewBox="0 0 18 20" fill="none" xmlns="http://www.w3.org/2000/svg">
<path d="M0.395223 9.6176C0.645858 9.86245 0.985747 10 1.34015 10C1.69454 10 2.03443 9.86245 2.28507 9.6176L8.90086 3.15257L15.5167 9.6176C15.7687 9.85551 16.1063 9.98715 16.4568 9.98418C16.8072 9.9812 17.1424 9.84385 17.3902 9.60169C17.638 9.35954 17.7786 9.03196 17.7816 8.68951C17.7847 8.34706 17.65 8.01715 17.4065 7.77082L9.84579 0.382399C9.59515 0.137549 9.25526 0 8.90086 0C8.54647 0 8.20658 0.137549 7.95594 0.382399L0.395223 7.77082C0.144663 8.01575 0.00390625 8.34789 0.00390625 8.69421C0.00390625 9.04053 0.144663 9.37268 0.395223 9.6176Z" fill="white"/>
<path d="M0.395223 19.6176C0.645858 19.8624 0.985747 20 1.34015 20C1.69454 20 2.03443 19.8624 2.28507 19.6176L8.90086 13.1526L15.5167 19.6176C15.7687 19.8555 16.1063 19.9872 16.4568 19.9842C16.8072 19.9812 17.1424 19.8438 17.3902 19.6017C17.638 19.3595 17.7786 19.032 17.7816 18.6895C17.7847 18.3471 17.65 18.0171 17.4065 17.7708L9.84579 10.3824C9.59515 10.1375 9.25526 10 8.90086 10C8.54647 10 8.20658 10.1375 7.95594 10.3824L0.395223 17.7708C0.144663 18.0157 0.00390625 18.3479 0.00390625 18.6942C0.00390625 19.0405 0.144663 19.3727 0.395223 19.6176Z" fill="white"/>
</svg>
