<svg width="136" height="74" viewBox="0 0 136 74" fill="none" xmlns="http://www.w3.org/2000/svg">
<path d="M5.28125 12.9375H15.0625V41.25C15.0625 44.4167 15.4375 46.7292 16.1875 48.1875C17.3542 50.7708 19.8958 52.0625 23.8125 52.0625C27.7083 52.0625 30.2396 50.7708 31.4062 48.1875C32.1562 46.7292 32.5312 44.4167 32.5312 41.25V12.9375H42.3125V41.25C42.3125 46.1458 41.5521 49.9583 40.0312 52.6875C37.1979 57.6875 31.7917 60.1875 23.8125 60.1875C15.8333 60.1875 10.4167 57.6875 7.5625 52.6875C6.04167 49.9583 5.28125 46.1458 5.28125 41.25V12.9375ZM77.4688 27.5938C77.4688 25.1979 76.8333 23.4896 75.5625 22.4688C74.3125 21.4479 72.5521 20.9375 70.2812 20.9375H61.3125V34.5H70.2812C72.5521 34.5 74.3125 33.9479 75.5625 32.8438C76.8333 31.7396 77.4688 29.9896 77.4688 27.5938ZM87 27.5312C87 32.9688 85.625 36.8125 82.875 39.0625C80.125 41.3125 76.1979 42.4375 71.0938 42.4375H61.3125V59H51.75V12.9375H71.8125C76.4375 12.9375 80.125 14.125 82.875 16.5C85.625 18.875 87 22.5521 87 27.5312ZM92.2188 36.3438C92.2188 28.3021 94.375 22.1042 98.6875 17.75C102.438 13.9583 107.208 12.0625 113 12.0625C120.75 12.0625 126.417 14.6042 130 19.6875C131.979 22.5417 133.042 25.4062 133.188 28.2812H123.562C122.938 26.0729 122.135 24.4062 121.156 23.2812C119.406 21.2812 116.812 20.2812 113.375 20.2812C109.875 20.2812 107.115 21.6979 105.094 24.5312C103.073 27.3438 102.062 31.3333 102.062 36.5C102.062 41.6667 103.125 45.5417 105.25 48.125C107.396 50.6875 110.115 51.9688 113.406 51.9688C116.781 51.9688 119.354 50.8646 121.125 48.6562C122.104 47.4688 122.917 45.6875 123.562 43.3125H133.094C132.26 48.3333 130.125 52.4167 126.688 55.5625C123.271 58.7083 118.885 60.2812 113.531 60.2812C106.906 60.2812 101.698 58.1562 97.9062 53.9062C94.1146 49.6354 92.2188 43.7812 92.2188 36.3438Z" fill="#898989"/>
</svg>
