<svg width="18" height="10" viewBox="0 0 18 10" fill="none" xmlns="http://www.w3.org/2000/svg">
<path d="M17.386 0.3824C17.1354 0.13755 16.7955 8.67839e-07 16.4411 8.36857e-07C16.0867 8.05874e-07 15.7468 0.13755 15.4962 0.3824L8.88039 6.84743L2.26459 0.382399C2.01252 0.144488 1.67491 0.0128436 1.32448 0.01582C0.974044 0.0187955 0.638827 0.156153 0.391024 0.398308C0.143222 0.640463 0.00266154 0.968042 -0.000382617 1.31049C-0.00342868 1.65294 0.131285 1.98285 0.374745 2.22918L7.93546 9.6176C8.1861 9.86245 8.52599 10 8.88039 10C9.23478 10 9.57467 9.86245 9.82531 9.6176L17.386 2.22918C17.6366 1.98425 17.7773 1.65211 17.7773 1.30579C17.7773 0.959467 17.6366 0.627324 17.386 0.3824Z" fill="white"/>
</svg>
